<?xml version="1.0" encoding="utf-8"?>
<!-- Generator: Adobe Illustrator 18.1.1, SVG Export Plug-In . SVG Version: 6.00 Build 0)  -->
<!DOCTYPE svg PUBLIC "-//W3C//DTD SVG 1.1//EN" "http://www.w3.org/Graphics/SVG/1.1/DTD/svg11.dtd">
<svg version="1.1" xmlns="http://www.w3.org/2000/svg" xmlns:xlink="http://www.w3.org/1999/xlink" x="0px" y="0px"
	 viewBox="0 0 100 100" enable-background="new 0 0 100 100" xml:space="preserve">
<g id="progetto" display="none">
	<g display="inline">
		<g>
			<rect x="45" y="4.479" fill="#C73B40" width="10" height="19.179"/>
		</g>
		<g>
			
				<rect x="70.407" y="15.003" transform="matrix(0.7071 0.7072 -0.7072 0.7071 39.4809 -46.1204)" fill="#C73B40" width="10" height="19.179"/>
		</g>
		<g>
			<rect x="76.341" y="45" fill="#C73B40" width="19.18" height="10"/>
		</g>
		<g>
			<rect x="76.341" y="45" fill="#C73B40" width="19.18" height="10"/>
		</g>
		<g>
			<rect x="76.341" y="45" fill="#C73B40" width="19.18" height="10"/>
		</g>
		<g>
			<rect x="45" y="76.342" fill="#C73B40" width="10" height="19.179"/>
		</g>
		<g>
			
				<rect x="19.593" y="65.818" transform="matrix(0.7071 0.7072 -0.7072 0.7071 60.5291 4.6991)" fill="#C73B40" width="10" height="19.179"/>
		</g>
		<g>
			<rect x="4.479" y="45" fill="#C73B40" width="19.179" height="10"/>
		</g>
		<g>
			
				<rect x="15.003" y="19.593" transform="matrix(0.7071 0.7071 -0.7071 0.7071 24.5928 -10.1867)" fill="#C73B40" width="19.179" height="10"/>
		</g>
		<polygon fill="#C73B40" points="78.653,85.723 67.67,74.741 62.391,80.02 55.94,55.942 80.019,62.392 74.741,67.67 85.724,78.653 
					"/>
		<path fill="#4D71B3" d="M53.043,56.719L51.698,51.7l5.018,1.344l3.976,1.065c0.491-1.277,0.772-2.659,0.772-4.109
			c0-6.332-5.133-11.464-11.464-11.464c-6.332,0-11.464,5.133-11.464,11.464S43.668,61.464,50,61.464c1.45,0,2.831-0.28,4.108-0.771
			L53.043,56.719z"/>
	</g>
</g>
<g id="IEEL" display="none">
	<g display="inline">
		<g>
			<path fill="#C73B40" d="M82.59,87.812c-7.215,0-13.084-5.869-13.084-13.084s5.869-13.084,13.084-13.084
				c7.214,0,13.083,5.869,13.083,13.084S89.804,87.812,82.59,87.812z M82.59,68.644c-3.354,0-6.084,2.729-6.084,6.084
				s2.729,6.084,6.084,6.084s6.083-2.729,6.083-6.084S85.944,68.644,82.59,68.644z"/>
		</g>
		<g>
			<path fill="#C73B40" d="M17.965,70.108c-7.215,0-13.084-5.869-13.084-13.084S10.75,43.94,17.965,43.94
				s13.084,5.869,13.084,13.084S25.18,70.108,17.965,70.108z M17.965,50.94c-3.354,0-6.084,2.729-6.084,6.084
				s2.729,6.084,6.084,6.084s6.084-2.729,6.084-6.084S21.319,50.94,17.965,50.94z"/>
		</g>
		<path fill="#4D71B3" d="M69.506,74.728c0-1.771,0.357-3.458,0.997-5H66.76V48.632h7.245v-10H66.76V9.856H33.794v13.191h-3.743
			c-1.968-4.74-6.642-8.084-12.087-8.084c-7.215,0-13.084,5.869-13.084,13.084s5.869,13.084,13.084,13.084
			c5.444,0,10.118-3.344,12.087-8.084h3.743v18.977h-3.743c0.64,1.542,0.997,3.229,0.997,5s-0.357,3.458-0.997,5h3.743v7.703h-9.245
			v10h9.245v10.901H66.76V79.728h3.744C69.863,78.186,69.506,76.498,69.506,74.728z M17.965,34.132
			c-3.354,0-6.084-2.729-6.084-6.084s2.729-6.084,6.084-6.084s6.084,2.729,6.084,6.084S21.319,34.132,17.965,34.132z M56.76,38.632
			v10v21.096v10v0.901H43.794v-0.901v-10v-7.703v-10V33.048v-10v-3.191H56.76V38.632z"/>
	</g>
</g>
<g id="EGA" display="none">
	<g display="inline">
		<polygon fill="#4D71B3" points="63.545,70.61 55.319,78.836 47.094,70.61 30.661,70.61 28.823,72.448 26.985,70.61 19.543,70.61 
			19.543,19.945 9.543,19.945 9.543,70.61 9.543,80.61 19.543,80.61 90.177,80.61 90.177,70.61 		"/>
		<g>
			<polygon fill="#C73B40" points="55.319,73.886 38.877,57.444 28.393,67.928 21.322,60.857 38.877,43.301 55.319,59.744 
				82.161,32.902 89.231,39.973 			"/>
		</g>
	</g>
</g>
<g id="AMMO" display="none">
	<g display="inline">
		<g>
			<path fill="#C73B40" d="M42.542,92.681H5.543V64.683h36.999V92.681z M15.543,82.681h16.999v-7.998H15.543V82.681z"/>
		</g>
		<g>
			<path fill="#C73B40" d="M93.855,92.681H56.856V64.683h36.999V92.681z M66.856,82.681h16.999v-7.998H66.856V82.681z"/>
		</g>
		<path fill="#4D71B3" d="M69.355,64.683h10V46.815H55.188v-8.63h13.5V8.187H31.689v29.999h13.499v8.63H19.316v17.868h10v-7.868
			h40.039V64.683z M45.188,28.185h-3.499v-9.999h16.999v9.999h-3.5v0L45.188,28.185L45.188,28.185z"/>
	</g>
</g>
<g id="BECS">
	<g>
		<g>
			<rect x="19.201" y="49.481" fill="#C73B40" width="12" height="30.403"/>
		</g>
		<g>
			<rect x="42.938" y="49.481" fill="#C73B40" width="12" height="30.403"/>
		</g>
		<g>
			<rect x="66.673" y="49.481" fill="#C73B40" width="12" height="30.403"/>
		</g>
		<g>
			<path fill="#4D71B3" d="M88.198,43.606H11.117l-2.759-9.17l38.54-25.499h5.518l38.541,25.499L88.198,43.606z M27.736,33.606
				h43.843L49.657,19.103L27.736,33.606z"/>
		</g>
		<g>
			<rect x="13.117" y="84.938" fill="#4D71B3" width="73.081" height="7"/>
		</g>
	</g>
</g>
</svg>
