<?xml version="1.0" encoding="utf-8"?>
<!-- Generator: Adobe Illustrator 18.0.0, SVG Export Plug-In . SVG Version: 6.00 Build 0)  -->
<!DOCTYPE svg PUBLIC "-//W3C//DTD SVG 1.0//EN" "http://www.w3.org/TR/2001/REC-SVG-20010904/DTD/svg10.dtd">
<svg version="1.0" id="Your_Icon" xmlns="http://www.w3.org/2000/svg" xmlns:xlink="http://www.w3.org/1999/xlink" x="0px" y="0px"
	 viewBox="0 0 100 100" enable-background="new 0 0 100 100" xml:space="preserve">
<g>
	<g>
		<g>
			<g>
			</g>
		</g>
		<g>
		</g>
	</g>
</g>
<path fill="#040607" d="M70.136,78.335v16.276H33.857V84.207h-5.318c-7.406,0-13.402-6.003-13.402-13.412v-9.504h-4.556
	c-1.518,0-2.735-1.224-2.735-2.739c0-0.371,0.067-0.745,0.209-1.062l7.082-17.884c0,0,0.745-7.406,1.4-10.243
	c0.04-0.175,0.105-0.347,0.152-0.523l-0.01-0.007C20.418,15.485,34.724,5.03,49.253,5.03c14.917,0,28.002,9.827,32.572,24.451
	l-0.064,0.024c0.877,3.022,1.373,6.212,1.373,9.52c0,3.116-0.432,6.131-1.218,8.994l-9.53-7.389
	c1.528-0.866,2.711-2.283,2.711-4.438c0-1.879-0.577-3.673-1.656-5.18l-0.169-0.233l0.074-0.283
	c0.179-0.725,0.277-1.474,0.277-2.226c0-3.794-2.313-7.075-5.747-8.175l-0.246-0.078l-0.098-0.25
	c-1.305-3.076-4.206-5.059-7.372-5.059c-0.624,0-1.241,0.081-1.888,0.246l-0.287,0.071l-0.223-0.216
	c-1.511-1.474-3.46-2.293-5.497-2.293c-1.595,0-3.136,0.496-4.462,1.427l-0.277,0.199l-0.3-0.172
	c-1.173-0.664-2.455-1.005-3.804-1.005c-2.681,0-5.187,1.396-6.701,3.73l-0.179,0.28l-0.466-0.03
	c-0.148-0.007-0.294-0.017-0.445-0.017c-3.828,0-7.072,2.759-7.898,6.715l-0.061,0.3l-0.263,0.122
	c-3.055,1.369-5.028,4.522-5.028,8.026c0,2.334,0.867,4.529,2.425,6.178c1.562,1.649,3.639,2.56,5.848,2.56
	c1.612,0,3.17-0.486,4.509-1.417l0.31-0.219l0.31,0.226c1.339,0.958,2.914,1.467,4.543,1.467c1.615,0,3.183-0.513,4.536-1.484
	l0.408-0.29l0.327,0.384c0.833,0.988,2.068,1.865,3.38,2.401c1.12,0.506,3.011,0.803,5.086,0.803c0.928,0,1.824-0.064,2.654-0.175
	l3.77,33.438l0.809,7.18l6.351-3.453L70.136,78.335z"/>
<path fill="#040607" d="M69.7,31.299c0.267-0.31,0.408-0.718,0.388-1.137c-0.02-0.412-0.195-0.793-0.489-1.073
	c-0.58-0.549-1.544-0.499-2.067,0.105c-0.931,1.066-1.632,1.45-2.26,1.46c-1.379-2.448-3.696-4.142-6.33-4.627
	c0.25-1.258,0.833-2.401,1.703-3.318c0.566-0.607,0.563-1.589,0-2.189c-0.56-0.594-1.541-0.594-2.091,0
	c-1.335,1.406-2.229,3.238-2.563,5.204c-2.873-0.654-4.985-3.366-4.988-6.519c0-0.863-0.654-1.561-1.464-1.561
	c-0.816,0-1.48,0.698-1.48,1.561c0,0.536,0.041,1.052,0.125,1.572c-1.686,1.39-3.956,1.808-6.054,1.008l-0.023-0.013
	c-0.853-0.324-1.622-0.843-2.273-1.531c-0.28-0.3-0.648-0.455-1.042-0.455c-0.394,0-0.762,0.155-1.042,0.449
	c-0.28,0.294-0.432,0.681-0.432,1.096c0,0.418,0.152,0.816,0.432,1.106c0.684,0.718,1.447,1.315,2.297,1.771
	c-0.243,1.794-1.187,3.413-2.604,4.472c-1.16-1.639-2.786-2.867-4.62-3.494c-0.769-0.25-1.616,0.212-1.872,1.035
	c-0.216,0.836,0.206,1.679,0.971,1.929c0.988,0.33,1.889,0.917,2.61,1.706c-0.239,0.03-0.482,0.047-0.732,0.047h-0.101
	c-2.432,0-4.728,0.981-6.448,2.755c-0.297,0.294-0.455,0.688-0.459,1.106c-0.007,0.421,0.148,0.816,0.422,1.093
	c0.516,0.58,1.484,0.634,2.071,0.037c1.177-1.211,2.749-1.878,4.415-1.878h0.112c4.404,0,8.208-3.329,9.068-7.834
	c0.476,0.081,0.945,0.122,1.42,0.122c1.71,0,3.413-0.516,4.87-1.464c0.489,0.971,1.15,1.858,1.946,2.617
	c-0.826,1.211-1.369,2.587-1.602,4.044c-1.824-0.189-3.669,0.196-5.268,1.103c-0.718,0.398-0.995,1.345-0.61,2.111
	c0.26,0.506,0.759,0.813,1.305,0.813c0.26,0,0.482-0.064,0.678-0.185c1.224-0.675,2.556-0.914,3.875-0.708
	c0.287,1.963,1.153,3.828,2.465,5.281c0.553,0.597,1.511,0.617,2.081,0.05c0.29-0.29,0.452-0.678,0.459-1.089
	c0.01-0.418-0.135-0.813-0.415-1.113l-0.071-0.074c-1.046-1.21-1.639-2.755-1.683-4.333v-0.209c0-1.447,0.445-2.846,1.258-3.993
	c1.143,0.529,2.381,0.809,3.619,0.826l0.128,0.007c2.792,0.007,4.101,1.248,5.632,3.693c0,0,0.833,1.086,1.993,1.147
	C67.427,33.946,68.493,32.699,69.7,31.299z"/>
<polyline fill="#040607" points="61.104,38.037 65.32,75.421 75.299,69.992 85.699,86.864 91.568,83.249 81.366,66.697 
	91.173,61.364 61.104,38.037 "/>
</svg>
