<?xml version="1.0" encoding="utf-8"?>
<!-- Generator: Adobe Illustrator 18.1.1, SVG Export Plug-In . SVG Version: 6.00 Build 0)  -->
<!DOCTYPE svg PUBLIC "-//W3C//DTD SVG 1.1//EN" "http://www.w3.org/Graphics/SVG/1.1/DTD/svg11.dtd">
<svg version="1.1" xmlns="http://www.w3.org/2000/svg" xmlns:xlink="http://www.w3.org/1999/xlink" x="0px" y="0px"  width="200px" height="200px"
	 viewBox="0 0 100 100" enable-background="new 0 0 100 100" xml:space="preserve">
<g id="progetto">
	<g>
		<g>
			<rect x="45" y="4.479" fill="#C73B40" width="10" height="19.179"/>
		</g>
		<g>
			
				<rect x="70.407" y="15.003" transform="matrix(0.7071 0.7072 -0.7072 0.7071 39.4809 -46.1204)" fill="#C73B40" width="10" height="19.179"/>
		</g>
		<g>
			<rect x="76.341" y="45" fill="#C73B40" width="19.18" height="10"/>
		</g>
		<g>
			<rect x="76.341" y="45" fill="#C73B40" width="19.18" height="10"/>
		</g>
		<g>
			<rect x="76.341" y="45" fill="#C73B40" width="19.18" height="10"/>
		</g>
		<g>
			<rect x="45" y="76.342" fill="#C73B40" width="10" height="19.179"/>
		</g>
		<g>
			
				<rect x="19.593" y="65.818" transform="matrix(0.7071 0.7072 -0.7072 0.7071 60.5291 4.6991)" fill="#C73B40" width="10" height="19.179"/>
		</g>
		<g>
			<rect x="4.479" y="45" fill="#C73B40" width="19.179" height="10"/>
		</g>
		<g>
			
				<rect x="15.003" y="19.593" transform="matrix(0.7071 0.7071 -0.7071 0.7071 24.5928 -10.1867)" fill="#C73B40" width="19.179" height="10"/>
		</g>
		<polygon fill="#C73B40" points="78.653,85.723 67.67,74.741 62.391,80.02 55.94,55.942 80.019,62.392 74.741,67.67 85.724,78.653 
					"/>
		<path fill="#4D71B3" d="M53.043,56.719L51.698,51.7l5.018,1.344l3.976,1.065c0.491-1.277,0.772-2.659,0.772-4.109
			c0-6.332-5.133-11.464-11.464-11.464c-6.332,0-11.464,5.133-11.464,11.464S43.668,61.464,50,61.464c1.45,0,2.831-0.28,4.108-0.771
			L53.043,56.719z"/>
	</g>
</g>
</svg>