<?xml version="1.0" encoding="utf-8"?>
<!-- Generator: Adobe Illustrator 19.0.0, SVG Export Plug-In . SVG Version: 6.00 Build 0)  -->
<!DOCTYPE svg PUBLIC "-//W3C//DTD SVG 1.1//EN" "http://www.w3.org/Graphics/SVG/1.1/DTD/svg11.dtd">
<svg version="1.1" xmlns="http://www.w3.org/2000/svg" xmlns:xlink="http://www.w3.org/1999/xlink" x="0px" y="0px"
	 viewBox="0 0 100 100" enable-background="new 0 0 100 100" xml:space="preserve">
<g id="unica">
	<g>
		<path fill-rule="evenodd" clip-rule="evenodd" fill="#4D71B3" d="M27.564,17.611c0.56,0.73,0.275,1.743-0.794,2.563
			c-0.68,0.522-1.209,0.633-1.416,0.674c-0.272-0.029-0.701-0.395-0.983-0.778c-0.015-0.163,0.137-0.283,0.25-0.285
			c0.396,0.215,1.26,0.547,1.947,0.02c0.541-0.415,0.618-0.903,0.359-1.24c-0.248-0.323-0.633-0.453-1.366-0.291l-0.426,0.095
			c-0.744,0.165-1.544,0.172-1.986-0.405c-0.489-0.637-0.316-1.596,0.762-2.423c0.344-0.264,0.727-0.44,1.106-0.644
			c0.158-0.086,0.829,0.686,0.853,0.719c0.02,0.156-0.145,0.277-0.259,0.286c-0.377-0.235-0.918-0.435-1.512,0.021
			c-0.565,0.433-0.55,0.901-0.325,1.195c0.176,0.229,0.568,0.345,1.207,0.19l0.607-0.147C26.223,17.002,27.07,16.968,27.564,17.611z
			"/>
		<polygon fill-rule="evenodd" clip-rule="evenodd" fill="#4D71B3" points="32.104,40.429 38.689,40.429 38.689,42.131 
			32.078,42.131 32.079,48.679 30.378,48.679 30.366,42.131 23.745,42.131 23.745,40.429 30.388,40.442 30.388,33.746 
			32.089,33.746 		"/>
		<path fill-rule="evenodd" clip-rule="evenodd" fill="#4D71B3" d="M26.579,45.099c-0.486-0.262-0.923-0.421-1.077-0.474
			c-0.074,0.397-0.33,1.988,0.028,2.192c0.283,0.161,0.723,0.242,1.051,0.233c0.025-0.001,0.052,0.022,0.056,0.047l0.12,0.8
			c0.492-0.164,1.714-0.674,1.397-1.353C27.859,45.912,27.187,45.427,26.579,45.099z"/>
		<path fill-rule="evenodd" clip-rule="evenodd" fill="#4D71B3" d="M26.911,44.5c-0.595-0.361-1.082-0.544-1.082-0.544
			c-0.036-0.014-0.048-0.05-0.026-0.082c0.177-0.216,0.37-0.346,0.574-0.425c0.393-0.153,0.988-0.182,1.811,0.278
			c0.651,0.364,0.784,0.967,0.757,1.47c-0.028,0.501-0.215,0.911-0.215,0.913c-0.023,0.05-0.069,0.052-0.097,0.005
			C28.206,45.403,27.507,44.863,26.911,44.5z"/>
		<path fill-rule="evenodd" clip-rule="evenodd" fill="#4D71B3" d="M35.06,45.099c-0.486-0.262-0.923-0.421-1.077-0.474
			c-0.074,0.397-0.33,1.988,0.028,2.192c0.283,0.161,0.723,0.242,1.051,0.233c0.025-0.001,0.052,0.022,0.056,0.047l0.12,0.8
			c0.492-0.164,1.714-0.674,1.397-1.353C36.341,45.912,35.669,45.427,35.06,45.099z"/>
		<path fill-rule="evenodd" clip-rule="evenodd" fill="#4D71B3" d="M34.419,43.881c1.007,0.411,2.141,1.165,2.731,2.085
			c0.132-0.354,0.49-1.569-0.535-2.143C35.938,43.445,34.992,43.224,34.419,43.881z"/>
		<path fill-rule="evenodd" clip-rule="evenodd" fill="#4D71B3" d="M26.579,36.443c-0.486-0.262-0.923-0.421-1.077-0.474
			c-0.074,0.397-0.33,1.988,0.028,2.193c0.283,0.161,0.723,0.242,1.051,0.232c0.025-0.001,0.052,0.022,0.056,0.047l0.12,0.8
			c0.492-0.163,1.714-0.674,1.397-1.353C27.859,37.257,27.187,36.772,26.579,36.443z"/>
		<path fill-rule="evenodd" clip-rule="evenodd" fill="#4D71B3" d="M25.937,35.226c1.007,0.411,2.141,1.165,2.731,2.085
			c0.132-0.354,0.491-1.57-0.535-2.143C27.456,34.789,26.51,34.569,25.937,35.226z"/>
		<path fill-rule="evenodd" clip-rule="evenodd" fill="#4D71B3" d="M35.06,36.443c-0.486-0.262-0.923-0.421-1.077-0.474
			c-0.074,0.397-0.33,1.988,0.028,2.193c0.283,0.161,0.723,0.242,1.051,0.232c0.025-0.001,0.052,0.022,0.056,0.047l0.12,0.8
			c0.492-0.163,1.714-0.674,1.397-1.353C36.341,37.257,35.669,36.772,35.06,36.443z"/>
		<path fill-rule="evenodd" clip-rule="evenodd" fill="#4D71B3" d="M34.419,35.226c1.007,0.411,2.141,1.165,2.731,2.085
			c0.132-0.354,0.49-1.57-0.535-2.143C35.938,34.79,34.992,34.569,34.419,35.226z"/>
		<path fill-rule="evenodd" clip-rule="evenodd" fill="#4D71B3" d="M19.769,41.313c0.021,0.021,0.021,0.057,0,0.078l-1.412,1.412
			c-0.021,0.021-0.057,0.021-0.078,0l-1.412-1.413c-0.021-0.021-0.021-0.057,0-0.078l1.412-1.412c0.021-0.021,0.057-0.021,0.078,0
			L19.769,41.313z"/>
		<path fill-rule="evenodd" clip-rule="evenodd" fill="#4D71B3" d="M45.654,41.313c0.021,0.021,0.021,0.057,0,0.078l-1.412,1.412
			c-0.021,0.021-0.057,0.021-0.078,0l-1.412-1.413c-0.021-0.021-0.021-0.057,0-0.078l1.412-1.412c0.021-0.021,0.057-0.021,0.078,0
			L45.654,41.313z"/>
		<path fill-rule="evenodd" clip-rule="evenodd" fill="#4D71B3" d="M32.636,54.272c0.021,0.02,0.021,0.057,0,0.078l-1.412,1.412
			c-0.021,0.021-0.057,0.021-0.078,0l-1.412-1.412c-0.021-0.021-0.021-0.057,0-0.078l1.412-1.412c0.021-0.021,0.057-0.021,0.078,0
			L32.636,54.272z"/>
		<path fill-rule="evenodd" clip-rule="evenodd" fill="#4D71B3" d="M41.765,49.704c0.029,0,0.055,0.026,0.055,0.055v1.997
			c0,0.029-0.026,0.055-0.055,0.055h-1.997c-0.029,0-0.055-0.026-0.055-0.055v-1.997c0-0.029,0.026-0.055,0.055-0.055H41.765z"/>
		<path fill-rule="evenodd" clip-rule="evenodd" fill="#4D71B3" d="M22.798,49.704c0.029,0,0.055,0.026,0.055,0.055v1.997
			c0,0.029-0.026,0.055-0.055,0.055h-1.997c-0.029,0-0.055-0.026-0.055-0.055v-1.997c0-0.029,0.026-0.055,0.055-0.055H22.798z"/>
		<circle fill-rule="evenodd" clip-rule="evenodd" fill="#4D71B3" cx="30.33" cy="50.218" r="0.753"/>
		<path fill-rule="evenodd" clip-rule="evenodd" fill="#4D71B3" d="M30.744,51.251c0.135-0.018,0.241,0.038,0.252,0.172
			c-0.712,1.325-1.807,2.348-3.616,2.348c-2.096,0-2.905-1.025-3.609-2.317c0.005-0.165,0.11-0.221,0.205-0.221
			c0.823,0.889,2.218,1.226,3.405,1.226C28.567,52.459,29.962,52.122,30.744,51.251z"/>
		<circle fill-rule="evenodd" clip-rule="evenodd" fill="#4D71B3" cx="32.319" cy="50.218" r="0.753"/>
		<path fill-rule="evenodd" clip-rule="evenodd" fill="#4D71B3" d="M38.558,51.251c0.135-0.018,0.241,0.038,0.252,0.172
			c-0.712,1.325-1.807,2.348-3.616,2.348c-2.096,0-2.906-1.025-3.609-2.317c0.005-0.165,0.11-0.221,0.204-0.221
			c0.823,0.889,2.219,1.226,3.405,1.226C36.38,52.459,37.776,52.122,38.558,51.251z"/>
		<circle fill-rule="evenodd" clip-rule="evenodd" fill="#4D71B3" cx="22.246" cy="40.398" r="0.753"/>
		<circle fill-rule="evenodd" clip-rule="evenodd" fill="#4D71B3" cx="22.246" cy="34.573" r="0.753"/>
		<path fill-rule="evenodd" clip-rule="evenodd" fill="#4D71B3" d="M21.306,40.745c0.018,0.135-0.038,0.241-0.172,0.252
			c-1.325-0.712-2.348-1.807-2.348-3.616c0-2.096,1.026-2.906,2.317-3.609c0.165,0.005,0.221,0.11,0.221,0.204
			c-0.889,0.823-1.226,2.219-1.226,3.405S20.435,39.962,21.306,40.745z"/>
		<circle fill-rule="evenodd" clip-rule="evenodd" fill="#4D71B3" cx="22.246" cy="48.212" r="0.753"/>
		<circle fill-rule="evenodd" clip-rule="evenodd" fill="#4D71B3" cx="22.246" cy="42.386" r="0.753"/>
		<path fill-rule="evenodd" clip-rule="evenodd" fill="#4D71B3" d="M21.306,48.558c0.018,0.135-0.038,0.241-0.172,0.252
			c-1.325-0.712-2.348-1.807-2.348-3.616c0-2.096,1.026-2.906,2.317-3.609c0.165,0.005,0.221,0.11,0.221,0.204
			c-0.889,0.823-1.226,2.219-1.226,3.405S20.435,47.776,21.306,48.558z"/>
		<circle fill-rule="evenodd" clip-rule="evenodd" fill="#4D71B3" cx="40.158" cy="40.398" r="0.753"/>
		<circle fill-rule="evenodd" clip-rule="evenodd" fill="#4D71B3" cx="40.158" cy="34.573" r="0.753"/>
		<path fill-rule="evenodd" clip-rule="evenodd" fill="#4D71B3" d="M41.166,40.745c0.871-0.782,1.207-2.177,1.207-3.364
			s-0.336-2.582-1.207-3.364c-0.018-0.135,0.037-0.241,0.172-0.252c1.322,0.71,2.348,1.52,2.348,3.616
			c0,1.809-1.023,2.904-2.317,3.609c-0.165-0.005-0.221-0.11-0.221-0.204L41.166,40.745z"/>
		<circle fill-rule="evenodd" clip-rule="evenodd" fill="#4D71B3" cx="40.158" cy="48.212" r="0.753"/>
		<circle fill-rule="evenodd" clip-rule="evenodd" fill="#4D71B3" cx="40.158" cy="42.386" r="0.753"/>
		<path fill-rule="evenodd" clip-rule="evenodd" fill="#4D71B3" d="M41.166,48.558c0.871-0.782,1.207-2.178,1.207-3.364
			s-0.336-2.582-1.207-3.364c-0.018-0.135,0.037-0.241,0.172-0.252c1.322,0.71,2.348,1.52,2.348,3.616
			c0,1.809-1.023,2.904-2.317,3.609c-0.165-0.005-0.221-0.11-0.221-0.204L41.166,48.558z"/>
		<circle fill-rule="evenodd" clip-rule="evenodd" fill="#4D71B3" cx="38.046" cy="29.764" r="0.63"/>
		<circle fill-rule="evenodd" clip-rule="evenodd" fill="#4D71B3" cx="39.443" cy="30.476" r="0.63"/>
		<circle fill-rule="evenodd" clip-rule="evenodd" fill="#4D71B3" cx="39.32" cy="29.085" r="0.63"/>
		<circle fill-rule="evenodd" clip-rule="evenodd" fill="#4D71B3" cx="34.151" cy="28.778" r="0.63"/>
		<circle fill-rule="evenodd" clip-rule="evenodd" fill="#4D71B3" cx="35.695" cy="29.05" r="0.63"/>
		<circle fill-rule="evenodd" clip-rule="evenodd" fill="#4D71B3" cx="35.171" cy="27.755" r="0.63"/>
		<circle fill-rule="evenodd" clip-rule="evenodd" fill="#4D71B3" cx="30.581" cy="28.506" r="0.63"/>
		<circle fill-rule="evenodd" clip-rule="evenodd" fill="#4D71B3" cx="32.149" cy="28.506" r="0.63"/>
		<circle fill-rule="evenodd" clip-rule="evenodd" fill="#4D71B3" cx="31.407" cy="27.322" r="0.63"/>
		<circle fill-rule="evenodd" clip-rule="evenodd" fill="#4D71B3" cx="24.51" cy="29.764" r="0.63"/>
		<circle fill-rule="evenodd" clip-rule="evenodd" fill="#4D71B3" cx="23.113" cy="30.476" r="0.63"/>
		<circle fill-rule="evenodd" clip-rule="evenodd" fill="#4D71B3" cx="23.235" cy="29.085" r="0.63"/>
		<circle fill-rule="evenodd" clip-rule="evenodd" fill="#4D71B3" cx="28.568" cy="28.778" r="0.63"/>
		<circle fill-rule="evenodd" clip-rule="evenodd" fill="#4D71B3" cx="27.024" cy="29.05" r="0.63"/>
		<circle fill-rule="evenodd" clip-rule="evenodd" fill="#4D71B3" cx="27.548" cy="27.755" r="0.63"/>
		<path fill-rule="evenodd" clip-rule="evenodd" fill="#4D71B3" d="M32.915,30.477c0.971,0.139,1.839-0.877,1.843-0.882
			c0.03-0.035,0.071-0.03,0.091,0.011c0.001,0.003,0.579,1.18,1.558,1.473c0.977,0.292,2.013-0.422,2.015-0.423
			c0.061-0.042,0.119,0.019,0.075,0.078l-1.227,1.644c-0.015,0.02-0.05,0.027-0.072,0.015c0,0-0.505-0.294-1.487-0.588
			c-0.986-0.295-2.452-0.591-4.372-0.591c-1.92,0-3.386,0.296-4.372,0.591c-0.982,0.295-1.488,0.588-1.488,0.588
			c-0.021,0.013-0.057,0.005-0.072-0.015l-1.227-1.644c-0.044-0.059,0.015-0.12,0.075-0.078c0.002,0.002,1.039,0.715,2.015,0.423
			c0.979-0.292,1.557-1.47,1.558-1.473c0.02-0.042,0.061-0.047,0.091-0.011c0.004,0.005,0.872,1.021,1.843,0.882
			c0.612-0.088,1.232-0.586,1.54-1.122c0.026-0.045,0.096,0.001,0.096,0.001C31.402,29.357,31.939,30.337,32.915,30.477z"/>
		<circle fill-rule="evenodd" clip-rule="evenodd" fill="#4D71B3" cx="77.241" cy="30.305" r="0.63"/>
		<path fill-rule="evenodd" clip-rule="evenodd" fill="#4D71B3" d="M71.756,33.932c0-0.061,0.05-0.082,0.093-0.039l1.013,0.989
			l0.017,2.856l1.394-1.381c0.021-0.02,0.057-0.02,0.077,0l4.953,4.943c-0.273,0.266-1.873,1.118-2.902,1.065
			c-0.132-0.007-0.751-0.106-0.895-0.131l0.002-2.82h-0.735v0.609l-0.621-0.001l0-0.608l-0.803-0.002l-0.001,2.157
			c-0.194-0.086-0.871-0.25-1.508-0.25c-0.679,0-1.701,0.501-1.991,0.574l0.861,0.92c0.046-0.044,0.423-0.406,1.739-0.406
			c0.526,0,1.259,0.367,1.766,0.519c1.237,0.37,1.837,0.542,3.081,0.107c0.352-0.123,0.583-0.244,0.583-0.244
			c0.066-0.034,0.117,0.036,0.064,0.088l-3.618,3.551c-0.021,0.02-0.057,0.02-0.077,0c0,0-0.636-0.64-1.367-1.369v2.847
			l-1.029,1.028c-0.044,0.043-0.094,0.022-0.093-0.039l0.012-4.942l-0.743-0.737l-0.171-0.169v6.864l-1.029,1.052
			c-0.043,0.043-0.094,0.022-0.094-0.039v-9.017l-0.499-0.492c-0.023-0.021-0.024-0.058-0.001-0.08l0.499-0.493l0.001-8.961
			c0-0.061,0.05-0.082,0.094-0.039l1.013,1.013l0.016,6.883l0.913-0.907L71.756,33.932z"/>
		<path fill-rule="evenodd" clip-rule="evenodd" fill="#4D71B3" d="M67.697,50.086l-0.016-7.147l-0.899,0.892l-0.003,5.149
			c0,0.061-0.05,0.082-0.094,0.039l-1.013-0.989l-0.011-3.104l-1.537,1.502c-0.021,0.02-0.057,0.02-0.077,0l-3.538-3.526
			c-0.088-0.102,0.496-0.496,1.74-0.496c0.526,0,1.259,0.367,1.766,0.519c1.237,0.37,1.837,0.542,3.081,0.107
			c0.352-0.123,0.582-0.244,0.582-0.244c0.026-0.013,1.029-1.031,1.029-1.031c0.043-0.045,0.095-0.025,0.095,0.038v9.264
			c0,0.061-0.051,0.082-0.094,0.039L67.697,50.086z"/>
		<path fill-rule="evenodd" clip-rule="evenodd" fill="#4D71B3" d="M46.433,59.722c-0.282-2.047-0.484-1.929,0.604-1.009
			c0.016,0.014,0.023,0.049,0.013,0.068l-0.493,0.911c0.315-0.073,0.955-0.203,1.682-0.316l-0.694-0.694
			c-0.021-0.021-0.021-0.057,0-0.078l0.803-0.803c0.021-0.021,0.057-0.021,0.078,0l0.803,0.803c0.021,0.021,0.021,0.057,0,0.078
			l-0.642,0.642c0.608-0.086,1.247-0.154,1.79-0.164l-0.782-0.782c-0.021-0.021-0.021-0.057,0-0.078l0.803-0.803
			c0.021-0.021,0.057-0.021,0.078,0l0.803,0.803c0.021,0.021,0.021,0.057,0,0.078l-0.781,0.781c0.515-0.002,1.106,0.042,1.68,0.106
			l-0.586-0.583c-0.021-0.021-0.021-0.057,0-0.078l0.803-0.803c0.042-0.042,0.084,0.006,0.111,0.033
			c-0.456-1.792-0.915-3.145-0.987-3.353c-0.367-0.092-0.729-0.193-1.112-0.186c-0.56,0.011-1.379,0.232-1.919,0.422
			c-0.058,0.021-0.095-0.021-0.068-0.076c1.107-2.222,2.061-3.704,2.061-3.704c0.026-0.04,0.068-0.04,0.093,0
			c0,0,0.571,0.91,1.325,2.322c0.744,1.394,1.666,3.277,2.391,5.256l0.497-0.421c0.048-0.041,0.098-0.013,0.09,0.049l-0.201,1.49
			c0.456,1.433,0.776,2.879,0.821,4.197l0.499-0.282c0.053-0.032,0.098,0.001,0.082,0.061l-0.579,2.146
			c-0.035,1.554-0.164,3.046-0.321,4.338l0.374-0.172c0.056-0.025,0.096,0.012,0.075,0.069l-0.687,1.859
			c-0.244,1.561-0.476,2.561-0.476,2.561c-0.04,0.041-0.631,0.197-1.414,0.353c-0.784,0.156-1.759,0.312-2.522,0.311
			c-0.775-0.001-1.764-0.157-2.56-0.312c-0.794-0.156-1.395-0.311-1.395-0.311c-0.044-0.072-0.181-0.571-0.057-0.593
			c0,0,2.375-0.426,3.893-0.426c0.525,0,1.303,0.047,1.482,0.058c0.035-0.078,0.126-0.544,0.235-0.856
			c-0.59-0.066-1.2-0.114-1.719-0.111c-1.568,0.008-3.992,0.485-3.992,0.485l-0.368-1.203c0.039-0.064,0.691-0.25,1.557-0.434
			l0.467-0.095l-0.914-0.914c-0.021-0.021-0.021-0.057,0-0.078l0.976-0.975c0.021-0.021,0.057-0.021,0.078,0l0.975,0.975
			c0.021,0.021,0.021,0.057,0,0.078l-0.868,0.868c0.631-0.114,1.308-0.205,1.899-0.219l-0.961-0.961
			c-0.021-0.021-0.021-0.057,0-0.078l0.976-0.976c0.021-0.021,0.057-0.021,0.078,0l0.976,0.976c0.021,0.021,0.021,0.057,0,0.078
			l-0.96,0.96h0.082c0.48,0.003,1.055,0.069,1.605,0.16l-0.76-0.751c-0.021-0.021-0.021-0.057,0-0.078l0.976-0.976
			c0.02-0.02,0.056-0.02,0.077,0l0.604,0.589c0.2-0.928,0.384-1.994,0.493-3.145c-0.951-0.126-2.099-0.251-2.994-0.246
			c-1.854,0.011-4.721,0.546-4.721,0.546l-0.126-1.388l-0.579-2.051c-0.017-0.059,0.026-0.094,0.079-0.064l1.747,0.969
			c0.036,0.02,0.041,0.058,0.012,0.087l-0.989,0.989c0.383-0.08,1.13-0.21,1.975-0.323l-1.074-1.074
			c-0.021-0.021-0.021-0.057,0-0.078l1.126-1.127c0.021-0.021,0.057-0.021,0.078,0l1.126,1.127c0.021,0.02,0.021,0.057,0,0.078
			L48.013,65.3c0.782-0.099,1.626-0.178,2.334-0.185l-1.12-1.12c-0.021-0.021-0.021-0.057,0-0.078l1.126-1.126
			c0.021-0.021,0.057-0.021,0.078,0l1.126,1.126c0.021,0.021,0.021,0.057,0,0.078l-1.12,1.12c0.663-0.001,1.448,0.062,2.195,0.145
			l-0.954-0.951c-0.021-0.021-0.021-0.057,0-0.078l1.126-1.126c0.02-0.021,0.057-0.021,0.077,0l0.579,0.578
			c-0.046-1.095-0.185-2.188-0.378-3.266c-0.857-0.126-1.869-0.241-2.678-0.235c-1.665,0.012-4.234,0.546-4.234,0.546
			c-0.159,0.033,0.001-0.311,0.179-0.979C46.354,59.744,46.383,59.735,46.433,59.722z"/>
		<path fill-rule="evenodd" clip-rule="evenodd" fill="#4D71B3" d="M46.126,71.695c-0.034,0.034-0.076,0.025-0.091-0.021
			l-0.605-1.797c-0.02-0.059,0.023-0.095,0.077-0.066l1.58,0.821c0.037,0.019,0.043,0.058,0.014,0.088L46.126,71.695z"/>
		<path fill-rule="evenodd" clip-rule="evenodd" fill="#4D71B3" d="M51.83,78.733c-0.048-0.018-0.148-0.021-0.367-0.021h-1.955
			c-0.112,0-0.372-0.006-0.39,0.039c-0.004,0.011-0.007,0.029-0.007,0.068v0.819c0,0.301,0.021,0.43,0.074,0.493
			c0.05,0.06,0.138,0.072,0.343,0.087l0.251,0.022c0.117,0.07,0.112,0.23-0.004,0.268c-0.453-0.008-0.829-0.014-1.196-0.014
			c-0.367,0-0.742,0.006-1.059,0.017c-0.135-0.042-0.14-0.201-0.049-0.262l0.142-0.02c0.205-0.02,0.294-0.035,0.344-0.096
			c0.053-0.065,0.074-0.194,0.074-0.495v-2.072c0-0.301-0.021-0.43-0.074-0.494c-0.05-0.061-0.138-0.074-0.344-0.092l-0.184-0.017
			c-0.127-0.057-0.104-0.232,0.005-0.268c0.386,0.008,0.778,0.014,1.146,0.014c0.367,0,0.742-0.006,1.068-0.017
			c0.127,0.039,0.151,0.215,0.042,0.266l-0.16,0.022c-0.206,0.018-0.295,0.031-0.345,0.092c-0.053,0.064-0.074,0.193-0.074,0.494
			v0.674c0,0.079,0.008,0.082,0.03,0.09c0.048,0.018,0.147,0.022,0.366,0.022h1.955c0.219,0,0.319-0.004,0.366-0.022
			c0.022-0.008,0.03-0.012,0.03-0.09v-0.674c0-0.301-0.021-0.43-0.074-0.494c-0.05-0.061-0.138-0.074-0.344-0.092l-0.184-0.017
			c-0.127-0.057-0.104-0.232,0.004-0.268c0.403,0.008,0.778,0.014,1.146,0.014c0.367,0,0.742-0.006,1.076-0.017
			c0.127,0.039,0.151,0.215,0.042,0.266l-0.169,0.022c-0.206,0.018-0.294,0.031-0.344,0.092c-0.053,0.064-0.074,0.193-0.074,0.494
			v2.072c0,0.301,0.021,0.43,0.074,0.494c0.05,0.06,0.138,0.074,0.344,0.092l0.184,0.017c0.117,0.07,0.112,0.23-0.004,0.268
			c-0.386-0.008-0.762-0.014-1.129-0.014c-0.384,0-0.759,0.006-1.126,0.017c-0.135-0.042-0.14-0.201-0.049-0.262l0.209-0.026
			c0.206-0.018,0.294-0.031,0.344-0.092c0.053-0.064,0.074-0.193,0.074-0.494v-0.819C51.859,78.785,51.866,78.746,51.83,78.733z"/>
		<path fill-rule="evenodd" clip-rule="evenodd" fill="#4D71B3" d="M18.494,57.296c-0.197-0.184,0.676-0.886,0.718-0.931
			c0.041-0.044,0.112-0.046,0.155-0.006l0.907,0.844l0.627,0.58l0.169,0.155l1.432-1.48c0.182-0.198,0.876,0.666,0.931,0.718
			c0.044,0.041,0.046,0.112,0.005,0.155l-1.406,1.508l1.462,1.368l2.377-2.551c0.184-0.198,0.885,0.674,0.931,0.718
			c0.044,0.041,0.046,0.112,0.006,0.155l-2.375,2.546l6.268,5.852c0.085,0.506,0.174,0.99,0.22,1.33
			c0.022,0.169,0.035,0.309,0.026,0.395c-0.009,0.089-0.07,0.19-0.182,0.086l-7.205-6.72l-2.614,2.796
			c-0.185,0.197-0.888-0.677-0.931-0.718c-0.044-0.041-0.046-0.112-0.005-0.156l2.617-2.796l-1.464-1.373l-1.633,1.75
			c-0.184,0.197-0.886-0.676-0.931-0.718c-0.044-0.041-0.046-0.112-0.006-0.155l1.628-1.741L18.494,57.296z"/>
		<path fill-rule="evenodd" clip-rule="evenodd" fill="#4D71B3" d="M49.186,84.164c0.1,0.094,0.035,0.168-0.062,0.185
			c-0.079,0.014-0.212,0.01-0.376-0.002c-0.331-0.024-0.819-0.083-1.34-0.123l-8.735-8.112c-0.071-0.066-0.055-0.141,0.03-0.178
			c0.058-0.025,0.158-0.041,0.284-0.053c0.255-0.026,0.658-0.045,1.162-0.093L49.186,84.164z"/>
		<path fill-rule="evenodd" clip-rule="evenodd" fill="#4D71B3" d="M41.499,73.302c0.501,0.036,0.806,0.095,0.806,0.095
			c0.146,0.029-0.082,0.202-0.165,0.275c-0.756,0.653-1.746,1.064-2.735,1.184c-1.557,0.188-2.638,0.155-3.332,0.073
			c-0.699-0.082-1.004-0.213-1.004-0.213c-0.051-0.022-0.054-0.069-0.006-0.098c0,0,0.386-0.227,1.139-0.5
			C37.806,73.539,39.781,73.18,41.499,73.302z"/>
		<path fill-rule="evenodd" clip-rule="evenodd" fill="#4D71B3" d="M26.556,67.819c-0.053,0.063-0.074,0.189-0.074,0.485v1.955
			c0,0.288,0.021,0.455,0.12,0.53c0.083,0.064,0.196,0.111,0.869,0.111c0.919,0,1.031-0.026,1.4-0.577
			c0.082-0.039,0.394-0.05,0.357,0.079c-0.018,0.064-0.289,0.851-0.405,0.848c-0.351-0.011-1.069-0.017-2.004-0.017h-0.869
			c-0.426,0-0.843,0.006-1.193,0.017c-0.132-0.041-0.164-0.221-0.038-0.268l0.265-0.031c0.206-0.017,0.295-0.031,0.344-0.091
			c0.053-0.062,0.074-0.188,0.074-0.484v-2.072c0-0.296-0.021-0.422-0.074-0.485c-0.05-0.06-0.139-0.075-0.344-0.095l-0.234-0.022
			c-0.119-0.053-0.12-0.231,0.007-0.269c0.434,0.009,0.81,0.015,1.194,0.015c0.367,0,0.743-0.006,1.11-0.017
			c0.134,0.037,0.162,0.216,0.04,0.267l-0.199,0.026C26.695,67.744,26.606,67.758,26.556,67.819z"/>
		<path fill-rule="evenodd" clip-rule="evenodd" fill="#4D71B3" d="M60.97,75.88c0.126,0.013,0.225,0.028,0.283,0.053
			c0.084,0.037,0.1,0.112,0.029,0.178l-8.669,8.083c-0.569,0.062-1.066,0.125-1.402,0.151c-0.166,0.013-0.301,0.017-0.38,0.004
			c-0.097-0.016-0.164-0.091-0.063-0.185l8.953-8.348l0.085-0.029C60.313,75.835,60.715,75.854,60.97,75.88z"/>
		<path fill-rule="evenodd" clip-rule="evenodd" fill="#4D71B3" d="M73.572,70.869c0.052-0.063,0.074-0.192,0.074-0.493v-2.072
			c0-0.301-0.021-0.43-0.074-0.495c-0.05-0.061-0.138-0.076-0.344-0.096l-0.133-0.011c-0.117-0.07-0.112-0.23,0.004-0.268
			c0.336,0.008,0.728,0.014,1.095,0.014h1.596c0.532,0,1.015-0.006,1.123-0.017c0.02-0.002,0.051,0.017,0.057,0.036
			c0.019,0.054,0.041,0.195,0.063,0.343c0.023,0.151,0.048,0.319,0.073,0.438c0.028,0.135-0.292,0.109-0.346,0.083
			c-0.156-0.343-0.271-0.462-0.512-0.502c-0.187-0.038-0.434-0.049-0.658-0.049h-0.56c-0.045,0-0.238-0.007-0.277,0.03
			c-0.035,0.033-0.028,0.204-0.028,0.244v0.941c0,0.037,0.001,0.06,0.003,0.075l0.142,0.021h0.401c0.367,0,0.576-0.002,0.702-0.031
			c0.112-0.026,0.148-0.072,0.173-0.174l0.059-0.191c0.077-0.062,0.382-0.11,0.375,0.025c-0.008,0.15-0.025,0.349-0.025,0.554
			c0,0.211,0.017,0.405,0.025,0.582c0.005,0.112-0.351,0.115-0.375,0.022l-0.059-0.223c-0.046-0.182-0.123-0.204-0.874-0.204H74.87
			c-0.021,0-0.119-0.002-0.139,0.012c-0.006,0.026-0.007,0.048-0.007,0.083v0.707c0,0.294,0.021,0.461,0.121,0.536
			c0.083,0.064,0.204,0.111,0.911,0.111c1.049,0.011,1.212-0.146,1.491-0.576c0.095-0.057,0.395-0.055,0.367,0.075
			c-0.016,0.072-0.269,0.855-0.406,0.851c-0.367-0.011-1.086-0.017-2.063-0.017h-0.953c-0.367,0-0.876,0.006-1.252,0.017
			c-0.135-0.042-0.14-0.202-0.049-0.262l0.336-0.032C73.434,70.941,73.522,70.929,73.572,70.869z"/>
		<path fill-rule="evenodd" clip-rule="evenodd" fill="#4D71B3" d="M69.526,68.117l0.194-1.854l3.306-3.335
			c0.114-0.283,0.124-0.864,0.108-1.169c-0.372-7.131,7.864-6.553,7.787-1.831c-0.073,4.473-6.115,4.069-4.99,0.32
			c0.279-0.931,1.499-1.119,1.854-0.509c0.533,0.916-0.13,1.534-0.871,1.528c0.064,0.142,0.406,0.49,0.881,0.549
			c0.634,0.079,1.67-0.493,1.749-1.475c0.197-2.441-2.637-2.988-4.012-1.8c-0.895,0.918-1.179,1.772-0.987,3.185
			c0.118,0.869,0.671,1.737,1.323,2.293c0.134,0.114,0.221,0.176,0.221,0.176c0.06,0.042,0.023,0.118-0.047,0.098
			c0,0-1.029-0.302-1.841-0.602l-4.582,4.473C69.573,68.207,69.519,68.181,69.526,68.117z"/>
		<path fill-rule="evenodd" clip-rule="evenodd" fill="#4D71B3" d="M59.175,73.302c0.499-0.035,1.193-0.047,1.973,0.05
			c2.92,0.361,4.458,1.265,4.463,1.268c0.048,0.028,0.045,0.076-0.006,0.098c-0.011,0.005-1.221,0.516-4.335,0.139
			c-1.88-0.228-2.927-1.364-2.93-1.368c-0.035-0.039-0.021-0.081,0.03-0.091C58.368,73.397,58.674,73.337,59.175,73.302z"/>
		<path fill-rule="evenodd" clip-rule="evenodd" fill="#4D71B3" d="M64.108,36.368l1.511,1.508l-0.008-3.052l1.028-1.086
			c0.043-0.044,0.095-0.024,0.095,0.038l0.004,5.239l0.898,0.863v-7.056l1.029-1.052c0.043-0.043,0.094-0.022,0.094,0.039
			l0.012,9.207c0.253,0.257,0.415,0.363,0.312,0.417c0,0-0.474,0.248-1.074,0.49c-0.597,0.24-1.331,0.479-1.85,0.452
			c-0.132-0.007-0.751-0.106-0.895-0.131l-0.006-2.812l-0.761-0.001l0,0.59h-0.622l0-0.608h-0.767l-0.004,2.17
			c-0.227-0.054-0.812-0.236-1.448-0.222c-0.943,0.021-2.096,0.553-2.096,0.553l-0.571-0.489c-0.023-0.021-0.024-0.058-0.002-0.08
			l5.043-4.978C64.051,36.347,64.087,36.347,64.108,36.368z"/>
		<path fill-rule="evenodd" clip-rule="evenodd" fill="#4D71B3" d="M58.594,40.349c0.021,0.021,0.021,0.057,0,0.078l-1.412,1.412
			c-0.021,0.021-0.057,0.021-0.078,0l-1.412-1.413c-0.021-0.021-0.021-0.057,0-0.078l1.412-1.412c0.021-0.021,0.057-0.021,0.078,0
			L58.594,40.349z"/>
		<path fill-rule="evenodd" clip-rule="evenodd" fill="#4D71B3" d="M82.421,40.308c0.021,0.021,0.021,0.057,0,0.078l-1.412,1.412
			c-0.021,0.021-0.057,0.021-0.078,0l-1.412-1.412c-0.021-0.021-0.021-0.057,0-0.078l1.412-1.412c0.021-0.021,0.057-0.021,0.078,0
			L82.421,40.308z"/>
		<path fill-rule="evenodd" clip-rule="evenodd" fill="#4D71B3" d="M70.684,54.654c0.021,0.021,0.021,0.057,0,0.078l-1.412,1.412
			c-0.021,0.021-0.057,0.021-0.078,0l-1.412-1.413c-0.021-0.021-0.021-0.057,0-0.078l1.412-1.412c0.021-0.021,0.057-0.021,0.078,0
			L70.684,54.654z"/>
		<path fill-rule="evenodd" clip-rule="evenodd" fill="#4D71B3" d="M78.608,48.961c0.029,0,0.055,0.026,0.055,0.055v1.997
			c0,0.029-0.026,0.055-0.055,0.055h-1.997c-0.029,0-0.055-0.026-0.055-0.055v-1.997c0-0.029,0.026-0.055,0.055-0.055H78.608z"/>
		<path fill-rule="evenodd" clip-rule="evenodd" fill="#4D71B3" d="M61.695,48.961c0.029,0,0.055,0.026,0.055,0.055v1.997
			c0,0.029-0.026,0.055-0.055,0.055h-1.997c-0.029,0-0.055-0.026-0.055-0.055v-1.997c0-0.029,0.026-0.055,0.055-0.055H61.695z"/>
		<circle fill-rule="evenodd" clip-rule="evenodd" fill="#4D71B3" cx="59.334" cy="38.952" r="0.753"/>
		<circle fill-rule="evenodd" clip-rule="evenodd" fill="#4D71B3" cx="63.453" cy="34.833" r="0.753"/>
		<path fill-rule="evenodd" clip-rule="evenodd" fill="#4D71B3" d="M58.269,38.592c0.006,0.104-0.196,0.144-0.3,0.056
			c-0.434-1.44-0.383-2.938,0.896-4.217c1.482-1.482,2.78-1.329,4.191-0.914c0.114,0.121,0.073,0.323-0.03,0.317
			C60.865,33.718,58.153,36.431,58.269,38.592z"/>
		<circle fill-rule="evenodd" clip-rule="evenodd" fill="#4D71B3" cx="78.928" cy="39.045" r="0.753"/>
		<circle fill-rule="evenodd" clip-rule="evenodd" fill="#4D71B3" cx="74.809" cy="34.926" r="0.753"/>
		<path fill-rule="evenodd" clip-rule="evenodd" fill="#4D71B3" d="M80.026,38.685c0.116-2.161-2.596-4.873-4.757-4.758
			c-0.103,0.006-0.144-0.196-0.057-0.3c1.437-0.433,2.735-0.586,4.217,0.897c1.279,1.279,1.33,2.777,0.914,4.191
			C80.222,38.829,80.02,38.789,80.026,38.685z"/>
		<circle fill-rule="evenodd" clip-rule="evenodd" fill="#4D71B3" cx="63.9" cy="48.207" r="0.753"/>
		<circle fill-rule="evenodd" clip-rule="evenodd" fill="#4D71B3" cx="68.019" cy="52.326" r="0.753"/>
		<path fill-rule="evenodd" clip-rule="evenodd" fill="#4D71B3" d="M63.02,48.523c-0.116,2.161,2.596,4.873,4.757,4.757
			c0.104-0.006,0.145,0.196,0.057,0.3c-1.437,0.433-2.735,0.586-4.217-0.897c-1.279-1.279-1.33-2.777-0.914-4.191
			C62.824,48.378,63.026,48.419,63.02,48.523z"/>
		<circle fill-rule="evenodd" clip-rule="evenodd" fill="#4D71B3" cx="58.375" cy="42.682" r="0.753"/>
		<circle fill-rule="evenodd" clip-rule="evenodd" fill="#4D71B3" cx="62.494" cy="46.801" r="0.753"/>
		<path fill-rule="evenodd" clip-rule="evenodd" fill="#4D71B3" d="M57.495,42.963c-0.116,2.161,2.596,4.873,4.757,4.757
			c0.104-0.006,0.145,0.196,0.057,0.3c-1.437,0.433-2.735,0.586-4.217-0.897c-1.279-1.279-1.33-2.777-0.914-4.191
			C57.299,42.819,57.501,42.859,57.495,42.963z"/>
		<circle fill-rule="evenodd" clip-rule="evenodd" fill="#4D71B3" cx="74.447" cy="48.207" r="0.753"/>
		<circle fill-rule="evenodd" clip-rule="evenodd" fill="#4D71B3" cx="70.328" cy="52.326" r="0.753"/>
		<path fill-rule="evenodd" clip-rule="evenodd" fill="#4D71B3" d="M75.315,48.523c-0.006-0.103,0.196-0.145,0.3-0.057
			c0.434,1.44,0.383,2.938-0.897,4.217c-1.482,1.482-2.78,1.329-4.191,0.914c-0.114-0.121-0.074-0.323,0.03-0.317
			C72.719,53.396,75.431,50.683,75.315,48.523z"/>
		<circle fill-rule="evenodd" clip-rule="evenodd" fill="#4D71B3" cx="79.972" cy="42.682" r="0.753"/>
		<circle fill-rule="evenodd" clip-rule="evenodd" fill="#4D71B3" cx="75.853" cy="46.801" r="0.753"/>
		<path fill-rule="evenodd" clip-rule="evenodd" fill="#4D71B3" d="M80.84,42.963c-0.006-0.104,0.196-0.145,0.3-0.056
			c0.434,1.44,0.383,2.938-0.897,4.217c-1.482,1.482-2.78,1.329-4.191,0.914c-0.114-0.121-0.074-0.323,0.03-0.317
			C78.244,47.837,80.956,45.124,80.84,42.963z"/>
		<circle fill-rule="evenodd" clip-rule="evenodd" fill="#4D71B3" cx="75.826" cy="29.594" r="0.63"/>
		<circle fill-rule="evenodd" clip-rule="evenodd" fill="#4D71B3" cx="77.1" cy="28.914" r="0.63"/>
		<circle fill-rule="evenodd" clip-rule="evenodd" fill="#4D71B3" cx="62.411" cy="29.594" r="0.63"/>
		<circle fill-rule="evenodd" clip-rule="evenodd" fill="#4D71B3" cx="61.013" cy="30.305" r="0.63"/>
		<circle fill-rule="evenodd" clip-rule="evenodd" fill="#4D71B3" cx="61.136" cy="28.914" r="0.63"/>
		<circle fill-rule="evenodd" clip-rule="evenodd" fill="#4D71B3" cx="65.416" cy="28.211" r="0.63"/>
		<circle fill-rule="evenodd" clip-rule="evenodd" fill="#4D71B3" cx="72.669" cy="28.211" r="0.63"/>
		<circle fill-rule="evenodd" clip-rule="evenodd" fill="#4D71B3" cx="68.309" cy="28.335" r="0.63"/>
		<circle fill-rule="evenodd" clip-rule="evenodd" fill="#4D71B3" cx="69.877" cy="28.335" r="0.63"/>
		<circle fill-rule="evenodd" clip-rule="evenodd" fill="#4D71B3" cx="69.135" cy="27.15" r="0.63"/>
		<path fill-rule="evenodd" clip-rule="evenodd" fill="#4D71B3" d="M70.643,30.305c0.971,0.139,1.839-0.877,1.843-0.882
			c0.03-0.036,0.071-0.03,0.091,0.011c0.001,0.003,0.58,1.18,1.558,1.473c0.977,0.292,2.013-0.422,2.015-0.423
			c0.061-0.042,0.119,0.019,0.075,0.078l-1.227,1.644c-0.015,0.02-0.05,0.027-0.072,0.015c0,0-0.505-0.294-1.488-0.588
			c-0.986-0.296-2.452-0.591-4.371-0.591c-1.92,0-3.386,0.296-4.372,0.591c-0.982,0.294-1.487,0.588-1.487,0.588
			c-0.021,0.013-0.057,0.005-0.072-0.015l-1.227-1.644c-0.044-0.059,0.015-0.12,0.075-0.078c0.002,0.001,1.039,0.715,2.015,0.423
			c0.979-0.292,1.557-1.47,1.558-1.473c0.02-0.042,0.061-0.047,0.091-0.011c0.004,0.005,0.872,1.021,1.843,0.882
			c0.976-0.14,1.539-1.121,1.54-1.122l0.096,0.001C69.13,29.185,69.667,30.166,70.643,30.305z"/>
		<path fill-rule="evenodd" clip-rule="evenodd" fill="#4D71B3" d="M50.02,47.745l4.922-1.216c0.041-0.01,0.071,0.015,0.068,0.058
			c-0.001,0.017-0.22,2.591-4.318,3.19c-2.211,0.323-3.489-1.31-4.075-3.125c-0.127-0.394-0.176-0.662-0.176-0.662
			c-0.01-0.056,0.029-0.085,0.079-0.059L50.02,47.745z"/>
		<circle fill-rule="evenodd" clip-rule="evenodd" fill="#4D71B3" cx="53.906" cy="20.809" r="0.524"/>
		<circle fill-rule="evenodd" clip-rule="evenodd" fill="#4D71B3" cx="54.57" cy="19.023" r="0.524"/>
		<circle fill-rule="evenodd" clip-rule="evenodd" fill="#4D71B3" cx="53.879" cy="17.238" r="0.524"/>
		<circle fill-rule="evenodd" clip-rule="evenodd" fill="#4D71B3" cx="51.924" cy="16.404" r="0.524"/>
		<circle fill-rule="evenodd" clip-rule="evenodd" fill="#4D71B3" cx="49.969" cy="16.208" r="0.524"/>
		<circle fill-rule="evenodd" clip-rule="evenodd" fill="#4D71B3" cx="47.805" cy="16.847" r="0.524"/>
		<circle fill-rule="evenodd" clip-rule="evenodd" fill="#4D71B3" cx="46.384" cy="18.111" r="0.524"/>
		<circle fill-rule="evenodd" clip-rule="evenodd" fill="#4D71B3" cx="46.019" cy="19.793" r="0.524"/>
		<circle fill-rule="evenodd" clip-rule="evenodd" fill="#4D71B3" cx="46.697" cy="21.631" r="0.524"/>
		<path fill-rule="evenodd" clip-rule="evenodd" fill="#4D71B3" d="M50.056,19.253c0.486-0.032,1.08,0.034,1.492,0.435l1.291-1.592
			l-1.007-0.183l-0.194,0.631l-0.9,0.039c-0.161,0,0.074-0.514,0.146-0.766L50.271,17.3l-0.615,0.615
			c0.4,0.867,0.521,0.677-0.383,0.824c-0.016,0.003-0.049-0.013-0.057-0.027l-0.443-0.787l-0.92,0.506l1.317,0.987
			C49.271,19.387,49.628,19.282,50.056,19.253z"/>
		<circle fill-rule="evenodd" clip-rule="evenodd" fill="#4D71B3" cx="24.505" cy="50.218" r="0.753"/>
		<circle fill-rule="evenodd" clip-rule="evenodd" fill="#4D71B3" cx="38.144" cy="50.218" r="0.753"/>
		<path fill-rule="evenodd" clip-rule="evenodd" fill="#4D71B3" d="M30.615,16.918c0.007-0.114-0.07-0.288-0.279-0.644l-1.682-2.854
			c-0.032-0.054-0.109-0.236-0.195-0.205c-0.027,0.01-0.063,0.03-0.115,0.06L27.9,13.536c-0.72,0.424-0.873,0.607-0.852,1.287
			c-0.059,0.146-0.368,0.244-0.39,0.114c-0.075-0.434-0.197-0.911-0.277-1.173c0.011-0.112,0.155-0.197,0.239-0.165
			c0.074,0.069,0.115,0.084,0.208,0.054c0.106-0.034,0.263-0.124,0.535-0.284l3.235-1.905c0.393-0.232,0.469-0.308,0.474-0.481
			l0.051-0.082c0.047-0.052,0.233-0.145,0.259-0.041c0.079,0.312,0.348,0.911,0.491,1.101c0,0.14-0.233,0.331-0.319,0.234
			c-0.381-0.426-0.573-0.475-1.411,0.019l-0.452,0.266c-0.095,0.056-0.164,0.069-0.112,0.181c0.019,0.041,0.049,0.093,0.089,0.16
			l1.682,2.854c0.209,0.355,0.325,0.507,0.428,0.557c0.093,0.045,0.185,0.01,0.389-0.087l0.301-0.142
			c0.145,0.014,0.243,0.179,0.164,0.284c-0.83,0.463-1.623,0.933-2.409,1.424c-0.145,0.025-0.264-0.15-0.206-0.255l0.33-0.248
			C30.533,17.082,30.609,17.019,30.615,16.918z"/>
		<path fill-rule="evenodd" clip-rule="evenodd" fill="#4D71B3" d="M38.051,9.275c-0.12,0.431-0.199,1.003-0.33,1.868l-0.168,1.068
			c-0.114,0.778-0.222,1.766-0.239,2.186l-0.073,0.091c-0.086,0.055-0.199,0.085-0.301,0.072c-0.242-0.271-0.504-0.575-0.766-0.82
			l-2.596-2.506c-0.412-0.396-0.508-0.453-0.848-0.392l-0.221,0.038c-0.126-0.039-0.221-0.222-0.085-0.312
			c0.756-0.234,1.483-0.501,2.205-0.783c0.161,0.019,0.234,0.178,0.146,0.291l-0.217,0.134c-0.05,0.029-0.168,0.091-0.19,0.157
			c0.018,0.05,0.127,0.17,0.753,0.79l1.08,1.066c0.231,0.23,0.546,0.514,0.723,0.677c0.142-1.048,0.302-2.19,0.41-3.298
			c0.034-0.315,0.005-0.32-0.226-0.285l-0.27,0.038c-0.139-0.053-0.192-0.214-0.105-0.308c0.62-0.199,1.214-0.397,1.789-0.64
			c0.165,0.015,0.191,0.188,0.165,0.271l-0.23,0.145C38.273,8.927,38.118,9.035,38.051,9.275z"/>
		<path fill-rule="evenodd" clip-rule="evenodd" fill="#4D71B3" d="M49.179,7.46c-0.059,0.099-0.074,0.29-0.056,0.701l0.125,2.85
			c0.018,0.412,0.049,0.6,0.117,0.694c0.062,0.085,0.16,0.098,0.385,0.112l0.203,0.014c0.12,0.08,0.13,0.272,0.011,0.328
			c-0.844,0.01-1.665,0.046-2.483,0.113c-0.147-0.048-0.154-0.24-0.069-0.317l0.23-0.045c0.223-0.034,0.32-0.056,0.374-0.145
			c0.06-0.099,0.074-0.29,0.056-0.701l-0.125-2.85c-0.018-0.412-0.049-0.6-0.117-0.694c-0.062-0.085-0.16-0.098-0.385-0.112
			l-0.203-0.014c-0.121-0.081-0.13-0.272-0.011-0.328c0.844-0.01,1.665-0.046,2.483-0.113c0.147,0.048,0.154,0.24,0.069,0.317
			l-0.23,0.045C49.329,7.348,49.232,7.37,49.179,7.46z"/>
		<path fill-rule="evenodd" clip-rule="evenodd" fill="#4D71B3" d="M69.46,13.173c-0.256,0.176-0.551,0.388-0.909,0.642
			l-0.885,0.621c-0.639,0.459-1.424,1.067-1.738,1.347L65.861,15.8c-0.149-0.031-0.249-0.092-0.31-0.173
			c0.027-0.361,0.063-0.761,0.058-1.121l0-3.608c-0.001-0.571-0.028-0.68-0.307-0.883L65.12,9.882
			c-0.06-0.118,0.006-0.313,0.165-0.278c0.694,0.381,1.39,0.719,2.095,1.043c0.098,0.129,0.034,0.292-0.108,0.308l-0.247-0.063
			c-0.099-0.028-0.163-0.04-0.204-0.039c-0.064,0.058-0.076,0.221-0.087,1.101l-0.016,1.517c-0.005,0.326,0.009,0.75,0.016,0.99
			c0.853-0.626,1.785-1.304,2.658-1.996c0.25-0.194,0.234-0.218,0.049-0.36l-0.215-0.167c-0.058-0.137,0.02-0.287,0.148-0.289
			c0.574,0.307,1.129,0.597,1.702,0.842c0.104,0.129-0.002,0.268-0.08,0.307l-0.263-0.065c-0.203-0.059-0.39-0.096-0.609,0.022
			C69.928,12.861,69.714,12.999,69.46,13.173z"/>
		<path fill-rule="evenodd" clip-rule="evenodd" fill="#4D71B3" d="M75.16,20.358c-0.266,0.418-0.208,0.49-0.012,0.663l0.199,0.19
			c0.097,0.133-0.065,0.305-0.203,0.259c-0.637-0.488-1.275-0.943-1.93-1.374c-0.073-0.107-0.015-0.318,0.153-0.292l0.241,0.119
			c0.289,0.156,0.32,0.152,0.617-0.265l1.407-1.972l0.291-0.431c-0.339,0.152-0.555,0.253-0.83,0.381l-1.428,0.64
			c-0.565,0.255-1.431,0.679-1.775,0.876c-0.089,0.012-0.298-0.115-0.275-0.201c0.113-0.426,0.226-1.264,0.276-1.697l0.188-1.675
			c0.035-0.288,0.092-0.685,0.128-0.968c-0.224,0.288-0.507,0.657-0.676,0.868c-0.286,0.37-0.697,0.914-1.062,1.425
			c-0.293,0.411-0.33,0.478-0.073,0.719l0.221,0.214c0.049,0.124-0.055,0.299-0.187,0.269c-0.533-0.411-1.061-0.786-1.606-1.14
			c-0.085-0.137,0.029-0.3,0.137-0.298l0.163,0.086c0.358,0.203,0.458,0.165,0.762-0.171c0.413-0.425,0.772-0.905,1.143-1.365
			c0.332-0.402,0.746-0.887,1.017-1.267c0.194-0.271,0.177-0.452-0.068-0.679l-0.228-0.22c-0.034-0.128,0.079-0.301,0.216-0.251
			c0.492,0.39,0.996,0.759,1.516,1.079c0.025,0.015,0.033,0.051,0.018,0.075c-0.235,0.393-0.269,0.864-0.32,1.308l-0.204,2.03
			c-0.014,0.131-0.037,0.497-0.046,0.726c0.22-0.087,0.439-0.183,0.772-0.34l1.56-0.696c0.492-0.222,1.013-0.423,1.447-0.753
			c0.016-0.013,0.052-0.012,0.068,0.001c0.442,0.359,0.913,0.693,1.395,0.995c0.105,0.13,0.014,0.323-0.144,0.298l-0.287-0.151
			c-0.329-0.182-0.45-0.142-0.672,0.17C76.409,18.464,75.766,19.398,75.16,20.358z"/>
		<path fill-rule="evenodd" clip-rule="evenodd" fill="#4D71B3" d="M32.583,88.355c0.241-0.195,0.52-0.43,0.857-0.711l0.834-0.689
			c0.602-0.509,1.338-1.177,1.627-1.48l0.065-0.023c0.151,0.019,0.255,0.072,0.323,0.148c0.001,0.362-0.003,0.764,0.03,1.122
			l0.284,3.598c0.046,0.569,0.081,0.676,0.376,0.856l0.19,0.118c0.069,0.113,0.019,0.312-0.143,0.29
			c-0.722-0.325-1.443-0.607-2.171-0.874c-0.108-0.121-0.057-0.288,0.083-0.315l0.252,0.043c0.057,0.011,0.187,0.043,0.246,0.009
			c0.02-0.049,0.018-0.212-0.04-1.091l-0.103-1.514c-0.021-0.326-0.068-0.747-0.094-0.986c-0.801,0.691-1.678,1.441-2.494,2.199
			c-0.234,0.214-0.216,0.236-0.02,0.363l0.228,0.15c0.069,0.132,0.002,0.288-0.125,0.3c-0.596-0.261-1.172-0.507-1.764-0.705
			c-0.114-0.121-0.019-0.268,0.055-0.312l0.268,0.044c0.208,0.043,0.396,0.065,0.606-0.07C32.14,88.704,32.343,88.549,32.583,88.355
			z"/>
		<path fill-rule="evenodd" clip-rule="evenodd" fill="#4D71B3" d="M30.045,87.046c0.037-0.061,0.097-0.167,0.195-0.344l0.725-1.308
			c0.285-0.513,0.604-1.114,0.581-1.37c-0.013-0.115-0.107-0.217-0.295-0.357l-0.165-0.118c-0.078-0.133,0.016-0.325,0.17-0.284
			c0.583,0.356,1.167,0.681,1.766,0.976c0.088,0.119,0.025,0.291-0.109,0.307l-0.221-0.068c-0.102-0.04-0.285-0.117-0.391-0.048
			c-0.239,0.163-0.674,0.981-0.82,1.245c-0.044,0.079-0.781,1.364-1.056,1.912c-0.118,0.235-0.138,0.344-0.016,0.6
			c0.049,0.097,0.234,0.268,0.338,0.352l0.109,0.087c0.065,0.123-0.04,0.312-0.188,0.273c-0.436-0.29-1.044-0.618-1.515-0.837
			c-0.009-0.404-0.413-1.722-0.555-2.139l-0.404-1.171c-0.083-0.248-0.214-0.654-0.331-1.008c-0.119-0.361-0.219-0.651-0.188-0.662
			l-0.074,0.12l-0.725,1.308c-0.285,0.514-0.604,1.114-0.573,1.373c0.013,0.115,0.1,0.214,0.287,0.353l0.173,0.122
			c0.078,0.134-0.016,0.325-0.17,0.284c-0.589-0.358-1.177-0.686-1.782-0.985c-0.088-0.119-0.026-0.291,0.109-0.307l0.229,0.072
			c0.171,0.068,0.295,0.101,0.383,0.043c0.248-0.158,0.68-0.974,0.827-1.24c0.407-0.734,0.823-1.472,1.223-2.213
			c0.137-0.255,0.264-0.498,0.293-0.577c0.045-0.123,0.341-0.013,0.407,0.031c0.074,0.245,0.181,0.602,0.455,1.471l0.891,2.835
			l0.289,0.903C29.969,86.84,30.011,86.959,30.045,87.046z"/>
		<path fill-rule="evenodd" clip-rule="evenodd" fill="#4D71B3" d="M22.339,82.827c0.111-0.033,0.25-0.164,0.515-0.48l1.835-2.186
			c0.265-0.316,0.37-0.476,0.383-0.591c0.012-0.104-0.051-0.18-0.208-0.343l-0.141-0.148c-0.034-0.141,0.088-0.288,0.213-0.249
			c0.629,0.563,1.259,1.091,1.908,1.594c0.075,0.135-0.048,0.281-0.163,0.281l-0.2-0.122c-0.188-0.126-0.274-0.175-0.374-0.146
			c-0.111,0.033-0.25,0.164-0.515,0.48l-1.835,2.186c-0.265,0.316-0.37,0.476-0.383,0.591c-0.012,0.104,0.051,0.181,0.208,0.343
			l0.14,0.148c0.034,0.141-0.088,0.288-0.213,0.249c-0.629-0.563-1.259-1.091-1.907-1.594c-0.076-0.135,0.048-0.281,0.163-0.281
			l0.2,0.122C22.152,82.807,22.239,82.857,22.339,82.827z"/>
		<path fill-rule="evenodd" clip-rule="evenodd" fill="#4D71B3" d="M17.322,77.753c0.443-0.063,1-0.218,1.846-0.442l1.047-0.272
			c0.76-0.206,1.709-0.501,2.101-0.653l0.069,0.007c0.128,0.081,0.201,0.173,0.23,0.271c-0.152,0.329-0.326,0.691-0.447,1.03
			l-1.264,3.381c-0.199,0.536-0.212,0.647-0.021,0.935l0.123,0.188c0.015,0.131-0.115,0.291-0.252,0.202
			c-0.517-0.6-1.051-1.16-1.598-1.71c-0.046-0.155,0.07-0.285,0.209-0.251l0.21,0.146c0.047,0.034,0.151,0.118,0.22,0.112
			c0.038-0.036,0.106-0.184,0.425-1.005l0.547-1.416c0.119-0.304,0.254-0.706,0.332-0.933c-1.018,0.288-2.13,0.597-3.19,0.94
			c-0.303,0.095-0.296,0.123-0.172,0.321l0.143,0.232c0.007,0.148-0.12,0.262-0.24,0.219c-0.43-0.489-0.848-0.955-1.301-1.385
			c-0.052-0.157,0.096-0.25,0.182-0.26l0.224,0.153C16.913,77.688,17.075,77.787,17.322,77.753z"/>
		<path fill-rule="evenodd" clip-rule="evenodd" fill="#4D71B3" d="M19.622,74.133c-0.115,0.003-0.283,0.093-0.621,0.329
			l-2.338,1.637c-0.338,0.236-0.48,0.364-0.523,0.472c-0.039,0.099,0.001,0.19,0.107,0.389l0.072,0.129
			c-0.003,0.145-0.159,0.256-0.27,0.186c-0.543-0.842-1.127-1.642-1.687-2.44c-0.339-0.484-0.649-0.913-0.727-0.999
			c-0.016-0.017-0.017-0.053-0.002-0.072c0.046-0.057,0.189-0.185,0.343-0.324c0.156-0.14,0.331-0.296,0.45-0.413
			c0.15-0.024,0.282,0.158,0.287,0.26c-0.288,0.408-0.349,0.61-0.243,0.858c0.137,0.361,0.5,0.832,0.714,1.137
			c0.031,0.045,0.142,0.218,0.21,0.225c0.071,0.007,0.26-0.138,0.312-0.174l1.062-0.744c0.14-0.098,0.128-0.082,0.029-0.223
			c-0.157-0.225-0.536-0.813-0.731-0.969c-0.099-0.079-0.177-0.08-0.319-0.017l-0.252,0.097c-0.139-0.034-0.272-0.201-0.235-0.314
			c0.197-0.14,0.433-0.283,0.665-0.445c0.238-0.167,0.447-0.336,0.642-0.483c0.148,0,0.258,0.178,0.263,0.278l-0.229,0.269
			c-0.19,0.199-0.156,0.29,0.315,0.961l0.253,0.362c0.097,0.139,0.084,0.144,0.22,0.049l0.798-0.559
			c0.329-0.23,0.518-0.39,0.541-0.549c0.02-0.126-0.003-0.272-0.449-0.909c-0.648-0.952-0.927-0.978-1.598-0.889
			c-0.149-0.053-0.282-0.315-0.162-0.372c0.3-0.142,0.901-0.313,1.154-0.327c0.649,0.954,1.301,1.852,1.936,2.758
			c0.232,0.331,0.56,0.786,0.81,1.116c0.038,0.15-0.119,0.259-0.23,0.229l-0.248-0.279C19.795,74.2,19.726,74.13,19.622,74.133z"/>
		<path fill-rule="evenodd" clip-rule="evenodd" fill="#4D71B3" d="M11.797,61.017c0.865-0.315,1.746,0.261,2.207,1.527
			c0.294,0.806,0.241,1.344,0.217,1.554c-0.11,0.25-0.588,0.55-1.038,0.704c-0.16-0.035-0.229-0.215-0.197-0.325
			c0.324-0.313,0.901-1.037,0.605-1.851c-0.234-0.641-0.675-0.861-1.076-0.715c-0.382,0.139-0.622,0.468-0.688,1.216l-0.038,0.435
			c-0.067,0.759-0.3,1.524-0.983,1.773c-0.755,0.275-1.618-0.178-2.082-1.455c-0.148-0.407-0.201-0.826-0.282-1.248
			c-0.034-0.177,0.904-0.584,0.942-0.598c0.154,0.028,0.22,0.222,0.195,0.333c-0.337,0.289-0.691,0.745-0.435,1.449
			c0.244,0.669,0.694,0.796,1.042,0.669c0.271-0.099,0.5-0.438,0.544-1.094l0.043-0.623C10.813,62.113,11.035,61.295,11.797,61.017z
			"/>
		<path fill-rule="evenodd" clip-rule="evenodd" fill="#4D71B3" d="M8.037,58.824c0.109,0.038,0.299,0.014,0.699-0.085l2.769-0.691
			c0.4-0.1,0.579-0.168,0.657-0.253c0.071-0.077,0.064-0.176,0.033-0.4l-0.027-0.202c0.055-0.134,0.241-0.181,0.319-0.076
			c0.178,0.825,0.377,1.622,0.606,2.411c-0.018,0.153-0.204,0.199-0.297,0.131l-0.09-0.216c-0.077-0.212-0.119-0.303-0.217-0.338
			c-0.109-0.038-0.299-0.014-0.699,0.085l-2.769,0.691c-0.4,0.1-0.579,0.168-0.657,0.253c-0.071,0.077-0.064,0.176-0.033,0.4
			l0.027,0.202c-0.055,0.134-0.241,0.181-0.319,0.076c-0.178-0.825-0.377-1.622-0.606-2.41c0.018-0.153,0.204-0.199,0.297-0.131
			l0.09,0.216C7.898,58.699,7.939,58.79,8.037,58.824z"/>
		<path fill-rule="evenodd" clip-rule="evenodd" fill="#4D71B3" d="M11.615,54.528c-0.099-0.056-0.289-0.066-0.701-0.037
			l-3.306,0.232c-0.063,0.004-0.26-0.008-0.271,0.083c-0.003,0.029-0.002,0.069,0.003,0.13l0.036,0.514
			c0.058,0.833,0.154,1.052,0.773,1.337c0.108,0.122,0.05,0.437-0.072,0.4c-0.422-0.126-0.903-0.23-1.174-0.275
			c-0.095-0.06-0.108-0.227-0.042-0.288c0.095-0.035,0.127-0.065,0.141-0.162c0.016-0.11,0.006-0.291-0.016-0.606l-0.262-3.746
			c-0.032-0.456-0.066-0.557-0.219-0.639l-0.05-0.082c-0.025-0.065-0.026-0.273,0.079-0.25c0.315,0.069,0.971,0.095,1.205,0.052
			c0.125,0.063,0.192,0.356,0.067,0.39c-0.552,0.151-0.681,0.301-0.613,1.271l0.037,0.523c0.008,0.111-0.012,0.178,0.112,0.181
			c0.046,0.001,0.105-0.002,0.183-0.008l3.306-0.232c0.412-0.029,0.599-0.065,0.69-0.135c0.082-0.063,0.091-0.161,0.096-0.387
			l0.007-0.333c0.077-0.124,0.268-0.138,0.327-0.021c0.044,0.949,0.111,1.869,0.2,2.792c-0.042,0.141-0.252,0.17-0.321,0.07
			l-0.074-0.406C11.725,54.675,11.703,54.579,11.615,54.528z"/>
		<path fill-rule="evenodd" clip-rule="evenodd" fill="#4D71B3" d="M11.452,41.208c0.9,0.191,1.342,1.147,1.062,2.464
			c-0.178,0.839-0.508,1.267-0.64,1.432c-0.226,0.154-0.79,0.155-1.254,0.047c-0.117-0.114-0.08-0.304,0.005-0.38
			c0.441-0.093,1.314-0.403,1.494-1.249c0.142-0.667-0.116-1.088-0.533-1.177c-0.398-0.084-0.776,0.067-1.228,0.667l-0.262,0.349
			c-0.459,0.609-1.063,1.133-1.773,0.983c-0.785-0.167-1.277-1.008-0.995-2.337c0.09-0.424,0.268-0.807,0.422-1.208
			c0.064-0.168,1.076-0.017,1.116-0.008c0.116,0.106,0.069,0.305-0.011,0.386c-0.439,0.067-0.981,0.266-1.136,0.999
			c-0.148,0.696,0.167,1.042,0.529,1.119c0.283,0.06,0.657-0.107,1.041-0.639l0.366-0.506
			C10.037,41.615,10.659,41.039,11.452,41.208z"/>
		<path fill-rule="evenodd" clip-rule="evenodd" fill="#4D71B3" d="M93.118,46.577c-0.007,0.112-0.006,0.177-0.01,0.261
			c-0.213,0.094-0.658,0.174-1.205,0.344c-0.118,0.037-0.183-0.268-0.119-0.371c0.462-0.234,1.018-0.712,0.853-1.888
			c-0.159-1.137-0.986-2.177-2.505-1.963c-1.582,0.222-2.187,1.512-2.025,2.665c0.157,1.121,0.845,1.52,1.363,1.702
			c0.123,0.106,0.113,0.294,0.026,0.371c-0.562,0.022-1.109-0.156-1.283-0.271c-0.053-0.137-0.098-0.239-0.134-0.335
			c-0.476-1.13-0.634-2.685-0.201-3.842c0.304-0.81,0.932-1.48,1.951-1.623c0.91-0.128,1.686,0.259,2.223,0.885
			C92.962,43.588,93.214,45.208,93.118,46.577z"/>
		<path fill-rule="evenodd" clip-rule="evenodd" fill="#4D71B3" d="M88.062,69.497c-0.056-0.1-0.211-0.205-0.572-0.388l-2.398-1.223
			c-0.35-0.178-0.58-0.271-0.732-0.216c-0.122,0.042-0.235,0.123-0.571,0.782c-0.458,0.899-0.486,1.024,0.011,1.739
			c0.002,0.135-0.148,0.393-0.251,0.307c-0.06-0.051-0.892-0.804-0.828-0.919c0.515-0.919,0.979-1.871,1.458-2.809
			c0.213-0.418,0.415-0.831,0.576-1.182c0.097-0.089,0.317-0.047,0.311,0.11l-0.095,0.28c-0.081,0.211-0.109,0.307-0.059,0.398
			c0.055,0.1,0.21,0.204,0.571,0.388l2.542,1.296c0.36,0.184,0.536,0.248,0.65,0.235c0.104-0.012,0.166-0.091,0.292-0.279
			l0.144-0.215c0.113-0.077,0.307,0.014,0.29,0.154c-0.413,0.755-0.797,1.502-1.15,2.264c-0.111,0.108-0.31,0.025-0.311-0.107
			l0.068-0.213C88.086,69.686,88.114,69.589,88.062,69.497z"/>
		<path fill-rule="evenodd" clip-rule="evenodd" fill="#4D71B3" d="M85.188,74.318c-0.046-0.106-0.193-0.228-0.538-0.453
			l-2.392-1.555c-0.346-0.225-0.517-0.309-0.633-0.308c-0.105,0.001-0.173,0.073-0.315,0.249l-0.13,0.157
			c-0.136,0.051-0.297-0.052-0.273-0.181c0.482-0.693,0.93-1.382,1.351-2.088c0.125-0.091,0.285,0.014,0.298,0.127l-0.097,0.214
			c-0.102,0.202-0.14,0.293-0.099,0.389c0.046,0.106,0.193,0.228,0.538,0.453l2.392,1.555c0.346,0.225,0.517,0.309,0.633,0.308
			c0.105-0.001,0.173-0.073,0.315-0.248l0.13-0.158c0.136-0.051,0.297,0.052,0.273,0.182c-0.482,0.693-0.93,1.382-1.351,2.087
			c-0.125,0.091-0.285-0.014-0.298-0.127l0.097-0.214C85.191,74.505,85.23,74.414,85.188,74.318z"/>
		<path fill-rule="evenodd" clip-rule="evenodd" fill="#4D71B3" d="M79.512,74.781c0.031,0.109,0.162,0.248,0.478,0.513l2.537,2.131
			c0.048,0.04,0.182,0.187,0.253,0.129c0.023-0.019,0.049-0.049,0.088-0.095l0.331-0.395c0.537-0.64,0.621-0.864,0.374-1.499
			c0.007-0.158,0.265-0.353,0.329-0.238c0.215,0.384,0.489,0.793,0.652,1.014c0.027,0.109-0.08,0.238-0.17,0.236
			c-0.092-0.04-0.136-0.041-0.214,0.019c-0.088,0.068-0.207,0.205-0.41,0.447l-2.414,2.877c-0.294,0.35-0.34,0.447-0.287,0.612
			l-0.021,0.094c-0.027,0.065-0.171,0.215-0.231,0.125c-0.179-0.268-0.632-0.743-0.83-0.874c-0.045-0.129,0.106-0.391,0.223-0.328
			c0.502,0.275,0.698,0.256,1.324-0.489l0.337-0.402c0.146-0.174,0.105-0.165-0.092-0.33l-2.537-2.131
			c-0.316-0.265-0.476-0.37-0.589-0.382c-0.103-0.011-0.178,0.052-0.337,0.212l-0.237,0.234c-0.142,0.035-0.289-0.088-0.25-0.213
			c0.628-0.713,1.219-1.422,1.797-2.148c0.128-0.072,0.299,0.053,0.279,0.172l-0.228,0.343
			C79.535,74.599,79.484,74.683,79.512,74.781z"/>
		<path fill-rule="evenodd" clip-rule="evenodd" fill="#4D71B3" d="M73.374,84.927c-0.033-0.063-0.094-0.169-0.195-0.344
			l-0.747-1.296c-0.293-0.508-0.643-1.092-0.874-1.204c-0.105-0.047-0.241-0.02-0.458,0.07l-0.186,0.081
			c-0.154-0.002-0.27-0.181-0.155-0.292c0.605-0.317,1.185-0.649,1.746-1.01c0.147-0.014,0.262,0.128,0.207,0.252l-0.172,0.155
			c-0.087,0.067-0.247,0.184-0.242,0.31c0.016,0.289,0.493,1.083,0.644,1.344c0.025,0.043,0.77,1.378,1.095,1.89
			c0.141,0.222,0.224,0.296,0.505,0.323c0.109,0.008,0.35-0.063,0.476-0.108l0.131-0.049c0.139,0.008,0.247,0.196,0.137,0.302
			c-0.474,0.224-1.067,0.576-1.498,0.867c-0.351-0.2-1.689-0.533-2.119-0.626l-1.211-0.257c-0.161-0.035-1.66-0.363-1.697-0.41
			c0.014,0.036,0.033,0.069,0.063,0.119l0.747,1.296c0.293,0.509,0.644,1.092,0.881,1.199c0.106,0.048,0.235,0.024,0.45-0.064
			l0.194-0.086c0.155,0.002,0.27,0.181,0.156,0.292c-0.61,0.321-1.195,0.656-1.762,1.019c-0.147,0.014-0.262-0.128-0.207-0.252
			l0.18-0.16c0.146-0.112,0.238-0.201,0.234-0.306c-0.008-0.293-0.485-1.085-0.636-1.348c-0.42-0.728-0.837-1.464-1.266-2.188
			c-0.147-0.249-0.291-0.483-0.344-0.549c-0.082-0.102,0.165-0.298,0.236-0.333c0.248,0.063,0.609,0.155,1.495,0.368l2.889,0.697
			C72.767,84.791,73.159,84.89,73.374,84.927z"/>
		<path fill-rule="evenodd" clip-rule="evenodd" fill="#4D71B3" d="M41.479,8.394c0.003,0.09,0.02,0.217,0.046,0.393l0.399,2.67
			c0.108,0.724,0.215,1.068,1.135,0.93c1.588-0.237,2.155-1.272,1.967-2.526c-0.218-1.462-1.337-2.024-2.837-1.8
			c-0.385,0.058-0.649,0.161-0.691,0.202C41.489,8.271,41.475,8.301,41.479,8.394z M40.821,12.63
			c0.049-0.105,0.043-0.296-0.018-0.703l-0.415-2.776c-0.11-0.733-0.126-0.769-0.509-0.753l-0.193,0.013
			c-0.133-0.049-0.161-0.239-0.059-0.313c0.67-0.153,1.396-0.285,2.289-0.418c0.867-0.13,1.501-0.162,2.202-0.063
			c1.159,0.173,2.078,0.875,2.251,2.035c0.129,0.866-0.254,1.826-1.328,2.483c-0.614,0.375-1.392,0.585-2.223,0.709
			c-0.555,0.083-0.99,0.101-1.326,0.152c-0.345,0.052-0.753,0.12-1.151,0.195c-0.151-0.033-0.178-0.222-0.102-0.308l0.224-0.069
			C40.683,12.757,40.777,12.725,40.821,12.63z"/>
		<path fill-rule="evenodd" clip-rule="evenodd" fill="#4D71B3" d="M56.025,10.058c0.07-1.145-0.467-2.478-1.881-2.565
			c-0.892-0.055-1.898,0.423-1.995,2.02c-0.064,1.048,0.386,2.473,1.909,2.566C55.072,12.142,55.932,11.569,56.025,10.058z
			 M50.776,9.653c0.222-3.631,6.842-3.338,6.616,0.351c-0.095,1.548-1.578,2.601-3.453,2.487
			C51.842,12.362,50.69,11.054,50.776,9.653z"/>
		<path fill-rule="evenodd" clip-rule="evenodd" fill="#4D71B3" d="M60.943,8.969c-0.019,0.043-0.035,0.104-0.058,0.19l-0.399,1.544
			c-0.008,0.032-0.046,0.145-0.016,0.178c0.031,0.033,0.116,0.061,0.339,0.119c0.852,0.221,1.309-0.025,1.481-0.693
			c0.144-0.555-0.158-1.156-0.906-1.35c-0.242-0.063-0.337-0.078-0.387-0.055C60.978,8.911,60.962,8.928,60.943,8.969z
			 M58.662,12.712c0.086-0.077,0.155-0.255,0.258-0.654l0.703-2.717c0.186-0.719,0.183-0.757-0.176-0.884l-0.226-0.082
			c-0.091-0.111-0.06-0.281,0.069-0.311c0.596,0.1,1.361,0.274,2.093,0.464c0.696,0.18,1.292,0.413,1.648,0.7
			c0.414,0.327,0.668,0.781,0.523,1.343c-0.187,0.722-0.943,0.902-1.419,0.938c0.237,0.642,0.666,1.885,1.082,2.366
			c0.195,0.233,0.432,0.34,0.531,0.373c0.088,0.088,0.049,0.205-0.003,0.247c-0.155,0.007-0.334-0.015-0.648-0.097
			c-0.875-0.226-1.275-0.65-1.645-1.493c-0.16-0.374-0.304-0.848-0.443-1.193c-0.095-0.243-0.167-0.289-0.45-0.362
			c-0.042-0.011-0.174-0.05-0.219-0.037c-0.015,0.025-0.022,0.049-0.032,0.089l-0.246,0.95c-0.103,0.399-0.129,0.589-0.091,0.698
			c0.034,0.099,0.124,0.141,0.335,0.22l0.19,0.073c0.092,0.112,0.045,0.298-0.085,0.317c-0.81-0.237-1.606-0.442-2.407-0.618
			c-0.115-0.081-0.109-0.279,0.032-0.326l0.227,0.026C58.485,12.775,58.584,12.782,58.662,12.712z"/>
		<path fill-rule="evenodd" clip-rule="evenodd" fill="#4D71B3" d="M90.407,49.857c-0.003,0.031-0.002,0.072-0.001,0.125
			l0.017,0.957c0,0.024,0.001,0.177,0.02,0.199c0.032-0.002,0.061-0.012,0.106-0.031l0.914-0.403
			c0.201-0.081,0.338-0.137,0.43-0.179l0.09-0.046l-0.109-0.046c-0.101-0.042-0.239-0.099-0.421-0.179l-0.904-0.371
			c-0.057-0.025-0.095-0.039-0.121-0.046L90.407,49.857z M89.969,51.217c0.002-0.039,0.001-0.088,0-0.15l-0.021-1.224
			c-0.004-0.208,0.013-0.186-0.177-0.259l-0.927-0.361c-0.056-0.022-0.305-0.124-0.371-0.094c-0.051,0.023-0.061,0.212-0.064,0.251
			l-0.034,0.268c-0.083,0.117-0.275,0.121-0.328,0.001c0.006-0.318,0-0.621,0.001-0.998c-0.005-0.303-0.018-0.587-0.038-0.908
			c0.067-0.135,0.226-0.137,0.314-0.057l0.061,0.308c0.033,0.248,0.092,0.334,0.333,0.46c0.201,0.107,0.524,0.248,0.94,0.433
			l2.752,1.214c0.256,0.119,0.421,0.186,0.528,0.162c0.03-0.007,0.061,0.013,0.066,0.044c0.042,0.226,0.206,0.424,0.353,0.593
			c0.023,0.027,0.027,0.048,0.027,0.054c0.001,0.088-0.026,0.149-0.075,0.197c-0.359,0.165-0.717,0.291-1.06,0.444l-3.19,1.381
			c-0.498,0.215-0.533,0.249-0.591,0.695l-0.021,0.139c-0.079,0.122-0.258,0.139-0.323,0.034c0.001-0.407,0.002-0.747-0.006-1.225
			c-0.007-0.395-0.029-0.799-0.042-1.121c0.061-0.137,0.246-0.153,0.318-0.07l0.039,0.231c0.032,0.291,0.038,0.302,0.335,0.188
			l1.034-0.45C89.906,51.348,89.962,51.331,89.969,51.217z"/>
		<path fill-rule="evenodd" clip-rule="evenodd" fill="#4D71B3" d="M92.167,56.852c-0.044-0.015-0.106-0.027-0.194-0.043
			l-1.571-0.277c-0.063-0.011-0.103-0.018-0.133-0.018c-0.108,0.002-0.134,0.344-0.137,0.363c-0.153,0.867,0.127,1.304,0.807,1.423
			c0.564,0.1,1.141-0.248,1.275-1.009c0.044-0.246,0.051-0.342,0.025-0.391C92.228,56.883,92.21,56.867,92.167,56.852z
			 M88.257,54.87c0.084,0.08,0.267,0.135,0.673,0.206l2.764,0.488c0.731,0.129,0.768,0.123,0.868-0.245l0.064-0.232
			c0.103-0.1,0.275-0.082,0.315,0.044c-0.053,0.602-0.167,1.379-0.298,2.123c-0.125,0.709-0.311,1.322-0.57,1.699
			c-0.293,0.438-0.727,0.727-1.298,0.626c-0.734-0.13-0.973-0.87-1.046-1.342c-0.581,0.268-1.673,0.745-2.178,1.176
			c-0.035,0.03-0.151,0.241-0.163,0.28l-0.034,0.106l-0.051,0.267c-0.063,0.242-0.04,0.344,0.136,0.551
			c0.146,0.174,0.393,0.426,0.709,0.754l2.097,2.157c0.192,0.206,0.321,0.33,0.429,0.348c0.031,0.005,0.051,0.035,0.045,0.065
			c-0.046,0.224,0.033,0.47,0.105,0.682c0.031,0.093-0.06,0.182-0.139,0.215c-0.394,0.018-0.774,0.001-1.149,0.014l-3.475,0.085
			c-0.542,0.013-0.588,0.031-0.809,0.423l-0.071,0.121c-0.119,0.084-0.291,0.032-0.312-0.09c0.31-0.742,0.574-1.464,0.834-2.194
			c0.108-0.104,0.286-0.05,0.321,0.055l-0.05,0.229c-0.079,0.282-0.078,0.294,0.241,0.3l1.127-0.03c0.116-0.006,0.173,0,0.223-0.104
			c0.017-0.035,0.034-0.081,0.057-0.139l0.439-1.143c0.027-0.071,0.083-0.154,0.024-0.22l-0.091-0.087l-0.724-0.683
			c-0.043-0.04-0.236-0.229-0.309-0.226c-0.056,0.002-0.136,0.174-0.154,0.209l-0.132,0.236c-0.121,0.077-0.3,0.009-0.304-0.122
			c0.124-0.293,0.233-0.576,0.375-0.924c0.058-0.152,0.113-0.3,0.166-0.452c-0.019-0.153-0.043-0.362,0.012-0.675
			c0.157-0.891,0.549-1.323,1.36-1.758c0.361-0.189,0.822-0.37,1.155-0.536c0.235-0.113,0.275-0.19,0.326-0.477
			c0.007-0.043,0.036-0.178,0.019-0.222c-0.026-0.013-0.05-0.018-0.091-0.025l-0.967-0.171c-0.406-0.072-0.597-0.082-0.703-0.036
			c-0.096,0.042-0.131,0.135-0.193,0.352l-0.058,0.196c-0.105,0.101-0.294,0.068-0.322-0.06c0.173-0.826,0.315-1.636,0.428-2.449
			c0.072-0.122,0.269-0.13,0.327,0.007l-0.008,0.228C88.18,54.698,88.181,54.798,88.257,54.87z M88.479,62.554
			c-0.014,0.027-0.029,0.066-0.048,0.115l-0.343,0.894c-0.009,0.023-0.065,0.164-0.056,0.192c0.031,0.01,0.061,0.012,0.11,0.011
			l0.998-0.031c0.217,0,0.365,0,0.467-0.005l0.101-0.009l-0.084-0.084c-0.077-0.077-0.185-0.182-0.323-0.324l-0.699-0.683
			c-0.043-0.044-0.073-0.072-0.095-0.088L88.479,62.554z"/>
		<path fill-rule="evenodd" clip-rule="evenodd" fill="#4D71B3" d="M77.224,79.848c-0.026,0.017-0.057,0.044-0.097,0.078
			l-0.734,0.615c-0.018,0.015-0.136,0.112-0.141,0.141c0.022,0.023,0.047,0.04,0.091,0.063l0.888,0.457
			c0.189,0.105,0.319,0.177,0.41,0.222l0.092,0.041l-0.032-0.114c-0.031-0.105-0.073-0.249-0.126-0.441l-0.281-0.936
			c-0.016-0.059-0.029-0.098-0.04-0.123L77.224,79.848z M75.892,80.363c0.032-0.023,0.069-0.054,0.117-0.094l0.938-0.787
			c0.159-0.134,0.153-0.107,0.09-0.301l-0.302-0.948c-0.019-0.057-0.095-0.315-0.161-0.348c-0.049-0.025-0.203,0.086-0.235,0.108
			l-0.23,0.143c-0.143,0.009-0.267-0.138-0.207-0.254c0.251-0.196,0.483-0.391,0.776-0.627c0.232-0.195,0.445-0.383,0.681-0.601
			c0.147-0.033,0.248,0.089,0.242,0.208L77.4,77.102c-0.172,0.181-0.201,0.282-0.147,0.548c0.043,0.223,0.137,0.563,0.255,1.003
			l0.789,2.904c0.068,0.274,0.12,0.444,0.207,0.512c0.024,0.019,0.028,0.055,0.008,0.079c-0.149,0.174-0.199,0.427-0.239,0.648
			c-0.018,0.096-0.141,0.13-0.226,0.121c-0.354-0.176-0.677-0.375-1.012-0.545l-3.081-1.611c-0.481-0.252-0.529-0.258-0.912-0.022
			l-0.121,0.071c-0.145,0.016-0.271-0.113-0.23-0.23c0.631-0.499,1.212-1.003,1.793-1.514c0.145-0.039,0.274,0.095,0.254,0.204
			l-0.155,0.176c-0.206,0.208-0.211,0.219,0.065,0.379l1,0.52C75.751,80.397,75.799,80.429,75.892,80.363z"/>
		<path fill-rule="evenodd" clip-rule="evenodd" fill="#4D71B3" d="M65.675,87.223c-0.03,0.008-0.068,0.024-0.117,0.044
			l-0.887,0.359c-0.023,0.009-0.164,0.065-0.178,0.09c0.014,0.029,0.032,0.053,0.067,0.088l0.703,0.709
			c0.148,0.158,0.248,0.266,0.322,0.338l0.075,0.068l0.004-0.119c0.003-0.109,0.007-0.259,0.016-0.458l0.022-0.977
			c0.002-0.057,0.003-0.1-0.001-0.129L65.675,87.223z M64.249,87.301c0.038-0.012,0.082-0.03,0.141-0.053l1.135-0.459
			c0.193-0.078,0.179-0.054,0.178-0.258l0.005-0.995c0-0.06,0.007-0.329-0.045-0.381c-0.039-0.039-0.22,0.019-0.257,0.03
			l-0.263,0.065c-0.139-0.036-0.211-0.214-0.118-0.306c0.299-0.109,0.58-0.222,0.932-0.356c0.281-0.114,0.541-0.227,0.833-0.361
			c0.15,0.014,0.209,0.161,0.166,0.273l-0.266,0.167c-0.219,0.12-0.278,0.206-0.31,0.475c-0.028,0.226-0.043,0.578-0.068,1.033
			l-0.147,3.005c-0.02,0.281-0.023,0.46,0.038,0.551c0.017,0.026,0.009,0.061-0.017,0.077c-0.196,0.12-0.322,0.345-0.427,0.543
			c-0.047,0.085-0.174,0.08-0.252,0.045c-0.282-0.276-0.528-0.566-0.794-0.831l-2.432-2.484c-0.379-0.387-0.423-0.409-0.861-0.303
			l-0.137,0.031c-0.142-0.03-0.222-0.191-0.147-0.29c0.754-0.279,1.462-0.579,2.173-0.886c0.15,0.008,0.231,0.175,0.179,0.272
			l-0.202,0.12c-0.26,0.134-0.268,0.143-0.055,0.38l0.79,0.804C64.104,87.29,64.14,87.335,64.249,87.301z"/>
		<path fill-rule="evenodd" clip-rule="evenodd" fill="#4D71B3" d="M12.29,70.441c0.045-0.014,0.101-0.042,0.181-0.083l1.422-0.725
			c0.03-0.015,0.139-0.061,0.143-0.106c0.004-0.045-0.031-0.127-0.136-0.332c-0.4-0.785-0.886-0.964-1.501-0.65
			c-0.511,0.26-0.762,0.885-0.411,1.573c0.114,0.223,0.165,0.304,0.215,0.327C12.223,70.453,12.246,70.455,12.29,70.441z
			 M16.606,69.668c-0.115-0.013-0.294,0.053-0.662,0.24l-2.502,1.275c-0.662,0.337-0.688,0.364-0.546,0.718l0.088,0.224
			c-0.022,0.142-0.171,0.231-0.279,0.154c-0.32-0.513-0.697-1.201-1.04-1.874c-0.327-0.641-0.547-1.242-0.568-1.699
			c-0.029-0.526,0.142-1.018,0.66-1.282c0.665-0.339,1.301,0.109,1.643,0.441c0.323-0.603,0.971-1.748,1.056-2.379
			c0.045-0.3-0.032-0.549-0.073-0.644c0.007-0.124,0.121-0.172,0.187-0.162c0.108,0.112,0.21,0.26,0.357,0.55
			c0.411,0.805,0.358,1.386-0.028,2.222c-0.174,0.368-0.434,0.79-0.6,1.123c-0.119,0.232-0.106,0.317,0.026,0.577
			c0.02,0.039,0.078,0.164,0.118,0.189c0.029-0.006,0.051-0.016,0.088-0.035l0.875-0.446c0.367-0.187,0.526-0.294,0.583-0.394
			c0.052-0.091,0.023-0.186-0.058-0.397l-0.071-0.191c0.023-0.143,0.194-0.231,0.294-0.146c0.359,0.764,0.734,1.495,1.133,2.213
			c0.016,0.14-0.137,0.266-0.265,0.192l-0.131-0.187C16.771,69.759,16.711,69.68,16.606,69.668z"/>
		<path fill-rule="evenodd" clip-rule="evenodd" fill="#4D71B3" d="M9.493,49.49c0.005-0.03,0.007-0.071,0.01-0.124l0.05-0.956
			c0.001-0.024,0.011-0.176-0.007-0.199c-0.032,0-0.061,0.007-0.108,0.023l-0.94,0.338c-0.206,0.067-0.347,0.113-0.442,0.149
			L7.963,48.76l0.106,0.054c0.098,0.049,0.232,0.116,0.408,0.208l0.876,0.433c0.054,0.028,0.092,0.046,0.118,0.054L9.493,49.49z
			 M10.024,48.164c-0.005,0.039-0.007,0.087-0.011,0.15l-0.064,1.222c-0.011,0.208-0.026,0.185,0.159,0.271l0.9,0.425
			c0.054,0.025,0.296,0.145,0.364,0.12c0.052-0.019,0.075-0.207,0.082-0.246l0.052-0.265c0.091-0.111,0.283-0.102,0.327,0.022
			c-0.028,0.317-0.044,0.619-0.071,0.995c-0.016,0.303-0.023,0.587-0.025,0.908c-0.076,0.13-0.235,0.121-0.317,0.036l-0.039-0.312
			c-0.016-0.249-0.069-0.339-0.3-0.481c-0.193-0.12-0.506-0.284-0.908-0.497l-2.662-1.402c-0.247-0.137-0.407-0.215-0.516-0.198
			c-0.031,0.005-0.06-0.017-0.063-0.048c-0.026-0.228-0.177-0.437-0.311-0.616c-0.058-0.079,0.001-0.192,0.065-0.247
			c0.37-0.139,0.736-0.24,1.089-0.369l3.28-1.156c0.512-0.18,0.55-0.211,0.638-0.652l0.03-0.137
			c0.087-0.116,0.267-0.121,0.325-0.011c-0.066,0.802-0.093,1.57-0.115,2.343c-0.07,0.132-0.256,0.136-0.323,0.047l-0.023-0.234
			c-0.012-0.293-0.016-0.304-0.321-0.211l-1.063,0.377C10.096,48.038,10.039,48.051,10.024,48.164z"/>
		<path fill-rule="evenodd" clip-rule="evenodd" fill="#4D71B3" d="M48.191,93.212c0,0.451,0.166,0.867,0.443,1.18
			c0.042,0.047,0.015,0.099-0.048,0.091l-0.853-0.106c-0.017-0.005-0.105-0.046-0.242-0.141c-0.837-0.577-1.344-1.539-1.527-2.527
			c-0.013-0.073,0.067-0.101,0.102-0.037c0.302,0.554,0.891,0.93,1.566,0.93c0.214,0,0.404-0.02,0.609-0.115
			c0.056-0.026,0.097,0.013,0.074,0.07C48.235,92.76,48.191,92.981,48.191,93.212z M47.632,89.044c-0.707,0-1.318,0.412-1.605,1.01
			c-0.032,0.067-0.115,0.042-0.104-0.032c0.151-1.059,0.644-2.103,1.491-2.775c0.139-0.111,0.229-0.162,0.229-0.162l1.375-0.187
			c0.071-0.01,0.097,0.065,0.036,0.102c-0.52,0.31-0.863,0.879-0.863,1.529c0,0.193,0.016,0.366,0.071,0.535
			c0.017,0.053-0.017,0.087-0.07,0.069C48.016,89.076,47.828,89.044,47.632,89.044z M53.044,87.744
			c0.389,0.461,0.815,1.185,0.968,2.241c0.011,0.073-0.069,0.099-0.103,0.033c-0.296-0.572-0.906-0.974-1.595-0.974
			c-0.21,0-0.414,0.04-0.602,0.108c-0.053,0.019-0.088-0.015-0.071-0.069c0.056-0.176,0.108-0.368,0.108-0.554
			c0-0.656-0.35-1.221-0.879-1.53c-0.062-0.037-0.037-0.111,0.035-0.102l1.376,0.182c0.02,0.006,0.109,0.056,0.247,0.164
			C52.665,87.35,52.85,87.514,53.044,87.744z M52.211,94.377l-0.857,0.102c-0.063,0.007-0.089-0.043-0.048-0.091
			c0.274-0.313,0.442-0.728,0.442-1.176c0-0.227-0.058-0.418-0.135-0.656c-0.018-0.054,0.018-0.089,0.072-0.069
			c0.195,0.074,0.407,0.114,0.629,0.114c0.676,0,1.263-0.377,1.564-0.932c0.035-0.065,0.116-0.037,0.102,0.036
			c-0.183,0.989-0.689,1.952-1.528,2.53c-0.137,0.095-0.225,0.136-0.225,0.136L52.211,94.377z M47.632,91.706
			c-0.488,0-0.883-0.395-0.883-0.883c0-0.487,0.395-0.883,0.883-0.883c0.488,0,0.883,0.395,0.883,0.883
			C48.515,91.31,48.12,91.706,47.632,91.706z M52.315,91.706c-0.488,0-0.883-0.395-0.883-0.883c0-0.487,0.395-0.883,0.883-0.883
			s0.883,0.395,0.883,0.883C53.198,91.31,52.802,91.706,52.315,91.706z M50.853,93.212c0,0.487-0.395,0.883-0.883,0.883
			c-0.487,0-0.883-0.395-0.883-0.883c0-0.488,0.395-0.883,0.883-0.883C50.458,92.329,50.853,92.724,50.853,93.212z M50.853,88.529
			c0,0.488-0.395,0.883-0.883,0.883c-0.487,0-0.883-0.395-0.883-0.883c0-0.488,0.395-0.883,0.883-0.883
			C50.458,87.647,50.853,88.042,50.853,88.529z M14.379,30.053c-0.202-0.117-0.421-0.196-0.638-0.228
			c-0.059-0.009-0.073-0.059-0.027-0.097c0.351-0.287,0.551-0.606,0.629-1.056c0.01-0.058,0.06-0.071,0.097-0.025
			c0.261,0.328,0.618,0.545,1.027,0.63c0.055,0.011,0.068,0.058,0.025,0.095c-0.3,0.259-0.523,0.597-0.6,0.991
			c-0.011,0.055-0.057,0.068-0.095,0.027C14.678,30.258,14.542,30.147,14.379,30.053z M13.482,26.828
			c-0.391-0.226-0.834-0.29-1.243-0.207c-0.062,0.013-0.093-0.036-0.055-0.087l0.518-0.686c0.013-0.012,0.093-0.067,0.243-0.139
			c0.919-0.437,2.004-0.394,2.952-0.059c0.069,0.025,0.054,0.108-0.02,0.107c-0.63-0.016-1.251,0.307-1.588,0.892
			c-0.107,0.185-0.184,0.36-0.205,0.585c-0.006,0.062-0.059,0.078-0.098,0.029C13.851,27.092,13.682,26.944,13.482,26.828z
			 M17.371,28.428c0.354-0.612,0.302-1.347-0.072-1.895c-0.042-0.061,0.021-0.12,0.079-0.074c0.842,0.66,1.499,1.609,1.658,2.678
			c0.026,0.176,0.026,0.279,0.026,0.279l-0.525,1.285c-0.027,0.067-0.105,0.052-0.106-0.02c-0.009-0.606-0.33-1.187-0.893-1.512
			c-0.167-0.096-0.325-0.169-0.499-0.207c-0.054-0.012-0.066-0.058-0.025-0.095C17.152,28.744,17.273,28.597,17.371,28.428z
			 M15.791,33.764c-0.593,0.106-1.433,0.113-2.425-0.282c-0.068-0.027-0.051-0.109,0.023-0.106c0.911,0.043,1.692-0.598,1.849-1.469
			c0.01-0.056,0.057-0.069,0.095-0.027c0.124,0.137,0.265,0.278,0.426,0.37c0.568,0.328,1.233,0.307,1.764,0.004
			c0.063-0.036,0.115,0.024,0.071,0.081l-0.845,1.101c-0.015,0.014-0.103,0.066-0.266,0.132
			C16.322,33.633,16.088,33.711,15.791,33.764z M10.462,29.727l0.34-0.793c0.025-0.058,0.082-0.056,0.103,0.004
			c0.134,0.394,0.409,0.747,0.797,0.971c0.196,0.113,0.391,0.159,0.635,0.21c0.056,0.012,0.068,0.06,0.024,0.096
			c-0.678,0.555-0.861,1.539-0.388,2.308c0.039,0.063-0.026,0.118-0.083,0.07c-0.765-0.653-1.346-1.573-1.427-2.588
			c-0.013-0.166-0.005-0.263-0.005-0.263L10.462,29.727z M15.066,27.097c0.244-0.422,0.784-0.567,1.206-0.323
			c0.422,0.244,0.567,0.784,0.323,1.206c-0.244,0.422-0.784,0.567-1.206,0.323S14.822,27.519,15.066,27.097z M12.724,31.152
			c0.244-0.422,0.784-0.567,1.206-0.323c0.422,0.244,0.567,0.784,0.323,1.206c-0.244,0.422-0.784,0.567-1.206,0.323
			C12.625,32.114,12.481,31.574,12.724,31.152z M12.151,29.133c-0.422-0.244-0.567-0.784-0.323-1.206
			c0.244-0.422,0.784-0.567,1.206-0.323c0.422,0.244,0.567,0.784,0.323,1.206C13.113,29.232,12.573,29.377,12.151,29.133z
			 M16.206,31.474c-0.422-0.244-0.567-0.784-0.323-1.206c0.244-0.422,0.784-0.567,1.206-0.323c0.422,0.244,0.567,0.784,0.323,1.206
			C17.169,31.574,16.628,31.718,16.206,31.474z M85.088,29.126c0.202-0.117,0.38-0.267,0.516-0.438
			c0.037-0.047,0.088-0.034,0.097,0.025c0.074,0.448,0.25,0.78,0.6,1.073c0.045,0.038,0.031,0.088-0.027,0.096
			c-0.414,0.062-0.782,0.263-1.06,0.575c-0.038,0.042-0.084,0.029-0.095-0.026c-0.074-0.389-0.256-0.752-0.558-1.015
			c-0.042-0.037-0.03-0.083,0.025-0.095C84.76,29.283,84.925,29.22,85.088,29.126z M88.329,29.962
			c0.391-0.226,0.668-0.577,0.801-0.974c0.02-0.06,0.078-0.062,0.103-0.004l0.335,0.792c0.004,0.017,0.012,0.114-0.001,0.28
			c-0.081,1.014-0.661,1.933-1.425,2.586c-0.056,0.048-0.121-0.007-0.083-0.07c0.329-0.538,0.359-1.237,0.022-1.821
			c-0.107-0.185-0.219-0.34-0.404-0.47c-0.05-0.036-0.037-0.09,0.024-0.099C87.916,30.15,88.129,30.077,88.329,29.962z
			 M84.999,32.53c0.353,0.612,1.016,0.935,1.677,0.885c0.074-0.006,0.093,0.078,0.025,0.106c-0.992,0.398-2.144,0.493-3.148,0.096
			c-0.165-0.065-0.255-0.118-0.255-0.118l-0.85-1.097c-0.044-0.057,0.007-0.117,0.07-0.082c0.529,0.295,1.193,0.308,1.756-0.017
			c0.167-0.096,0.309-0.197,0.428-0.329c0.037-0.041,0.083-0.028,0.095,0.026C84.834,32.182,84.901,32.36,84.999,32.53z
			 M81.167,28.493c0.204-0.567,0.619-1.298,1.457-1.959c0.058-0.046,0.12,0.011,0.08,0.073c-0.492,0.767-0.328,1.764,0.348,2.336
			c0.043,0.037,0.031,0.084-0.024,0.096c-0.18,0.039-0.372,0.09-0.533,0.183c-0.568,0.328-0.882,0.914-0.885,1.526
			c0,0.072-0.078,0.088-0.106,0.021l-0.531-1.282c-0.004-0.02-0.006-0.122,0.019-0.296C81.016,29.019,81.065,28.777,81.167,28.493z
			 M87.328,25.898l0.516,0.691c0.038,0.051,0.007,0.099-0.055,0.087c-0.408-0.081-0.851-0.02-1.24,0.205
			c-0.196,0.114-0.333,0.259-0.5,0.445c-0.038,0.043-0.086,0.029-0.095-0.028c-0.141-0.864-0.903-1.515-1.805-1.49
			c-0.074,0.002-0.089-0.082-0.02-0.107c0.948-0.336,2.035-0.379,2.955,0.058c0.151,0.072,0.231,0.127,0.231,0.127L87.328,25.898z
			 M87.304,31.199c0.244,0.422,0.099,0.962-0.323,1.206c-0.422,0.244-0.962,0.099-1.206-0.323c-0.244-0.422-0.099-0.962,0.323-1.206
			C86.521,30.632,87.06,30.777,87.304,31.199z M84.963,27.144c0.244,0.422,0.099,0.962-0.323,1.206
			c-0.422,0.244-0.962,0.099-1.206-0.323c-0.244-0.422-0.099-0.962,0.323-1.206C84.179,26.577,84.719,26.722,84.963,27.144z
			 M86.998,27.657c0.422-0.244,0.962-0.099,1.206,0.323c0.244,0.422,0.099,0.962-0.323,1.206c-0.422,0.244-0.962,0.099-1.206-0.323
			C86.431,28.44,86.576,27.901,86.998,27.657z M82.943,29.998c0.422-0.244,0.962-0.099,1.206,0.323
			c0.244,0.422,0.099,0.962-0.323,1.206c-0.422,0.244-0.962,0.099-1.206-0.323C82.376,30.781,82.521,30.242,82.943,29.998z
			 M9.768,34.262c0.01-0.026,0.043-0.041,0.069-0.032l4.742,1.705c0.029,0.011,0.044,0.044,0.032,0.072l-0.36,0.892
			c-0.01,0.025-0.043,0.04-0.069,0.031l-4.746-1.683c-0.029-0.01-0.044-0.044-0.033-0.072L9.768,34.262z M11.559,37.006
			c2.081,0.601,2.838,1.775,3.054,2.215c0.396-1.625,0.872-2.849,1.499-4.392c-0.378,0.109-1.65,0.34-3.653-0.684
			c-1.938-1.063-2.479-2.429-2.613-2.9c-0.854,2.048-1.71,4.115-2.345,6.291C7.932,37.251,9.401,36.451,11.559,37.006z
			 M16.364,22.837l0.61-0.772c0.019-0.024,0.055-0.028,0.079-0.008l3.83,3.269c0.021,0.018,0.025,0.054,0.008,0.076l-0.592,0.758
			c-0.019,0.024-0.055,0.028-0.079,0.008l-3.847-3.255C16.351,22.895,16.347,22.859,16.364,22.837z M18.059,19.429
			c0-0.075,0.002-0.139,0.005-0.191c-1.55,1.619-2.917,3.397-4.275,5.176l0.135-0.03c1.259-0.251,2.616,0.196,3.683,0.843
			c0.938,0.607,2.022,1.564,2.38,2.685l0.039,0.137c1.021-1.313,1.844-2.338,3.054-3.494c-0.488,0.032-1.884-0.037-3.445-1.538
			C18.7,22.061,18.058,20.778,18.059,19.429z M56.606,92.678l-0.957-5.004l0.999-0.198l0.977,4.996L56.606,92.678z M58.086,89.755
			c-0.52-2.103,0.119-3.345,0.391-3.752c-1.606,0.469-2.904,0.67-4.553,0.898c0.284,0.272,1.119,1.259,1.234,3.506
			c0.048,2.211-0.864,3.361-1.205,3.713c2.201-0.285,4.419-0.576,6.62-1.115C60.112,92.773,58.685,91.901,58.086,89.755z
			 M43.413,92.677l-0.974-0.142l0.869-5.016l0.967,0.165l-0.8,4.948L43.413,92.677z M46.095,86.9
			c-1.65-0.228-2.948-0.429-4.553-0.898c0.272,0.407,0.91,1.65,0.391,3.752c-0.37,1.325-1.234,2.62-2.486,3.25
			c2.201,0.538,4.42,0.83,6.62,1.115l-0.094-0.102c-0.847-0.965-1.139-2.363-1.111-3.611c0.057-1.115,0.344-2.533,1.135-3.404
			L46.095,86.9z M83.775,22.907c0.017,0.022,0.013,0.058-0.008,0.076l-3.848,3.255c-0.024,0.02-0.06,0.016-0.079-0.008l-0.592-0.758
			c-0.017-0.022-0.013-0.058,0.007-0.076l3.83-3.268c0.024-0.02,0.06-0.016,0.079,0.008L83.775,22.907z M80.504,23.086
			c-1.562,1.501-2.957,1.57-3.445,1.538c1.21,1.157,2.033,2.182,3.054,3.494c0.094-0.382,0.531-1.599,2.419-2.822
			c1.89-1.147,3.343-0.932,3.818-0.812c-1.359-1.779-2.726-3.557-4.276-5.176C82.105,19.822,82.063,21.494,80.504,23.086z
			 M90.372,34.332l0.363,0.914c0.012,0.029-0.004,0.062-0.033,0.072l-4.746,1.683c-0.026,0.009-0.059-0.006-0.069-0.031l-0.36-0.892
			c-0.012-0.029,0.003-0.062,0.032-0.072l4.742-1.705C90.328,34.291,90.361,34.306,90.372,34.332z M92.475,37.504
			c0.065,0.037,0.119,0.071,0.163,0.1c-0.634-2.176-1.491-4.243-2.344-6.29l-0.041,0.132c-0.412,1.215-1.477,2.167-2.571,2.768
			c-0.994,0.508-2.365,0.968-3.515,0.719l-0.138-0.035c0.627,1.543,1.103,2.767,1.499,4.392c0.216-0.439,0.973-1.613,3.054-2.214
			C89.876,36.743,91.308,36.829,92.475,37.504z M7.305,38.837c-0.141,0.086-0.229,0.153-0.26,0.178
			c-0.799,3.045-1.216,6.167-1.33,9.437c-0.729,20.876,13.104,38.883,32.381,44.24c0.346-0.158,0.689-0.424,0.963-0.68
			c0.536-0.503,1.161-1.32,1.514-2.583c0.58-2.346-0.202-3.428-0.345-3.605C23.949,81.42,12.282,66.283,12.896,48.704
			c0.096-2.76,0.492-5.439,1.173-8.006c-0.085-0.225-0.667-1.639-2.987-2.31C9.82,38.063,8.428,38.153,7.305,38.837z M87.104,51.296
			c-0.58,16.605-11.978,30.281-27.183,34.491c-0.145,0.181-0.98,1.343-0.4,3.69c0.347,1.244,1.113,2.402,2.265,3.017
			c0.144,0.076,0.245,0.117,0.282,0.131c23.537-6.638,36.687-30.781,30.879-53.585c-0.284-0.236-0.683-0.428-1.024-0.549
			c-0.678-0.241-1.674-0.401-2.943-0.076c-2.322,0.671-2.942,2.057-3.028,2.279C86.825,44.073,87.232,47.632,87.104,51.296z
			 M81.123,18.746c0.01-0.13,0.008-0.217,0.006-0.253C63.97,1.498,36.31,1.389,18.995,18.342c-0.033,0.357,0.03,0.773,0.115,1.114
			c0.171,0.686,0.569,1.607,1.487,2.544c1.742,1.675,3.231,1.475,3.465,1.436C38.512,9.33,61.56,9.38,75.953,23.426
			c0.234,0.036,1.755,0.184,3.498-1.492C80.263,21.105,81.029,19.946,81.123,18.746z M51.58,4.774
			C76.558,5.646,96.099,26.602,95.226,51.58C94.354,76.558,73.398,96.099,48.42,95.226C23.442,94.354,3.901,73.398,4.774,48.42
			C5.646,23.442,26.602,3.901,51.58,4.774z M50.536,90.823c0,0.234,0.041,0.463,0.121,0.666c0.022,0.055-0.015,0.093-0.07,0.072
			c-0.198-0.075-0.397-0.128-0.616-0.128c-0.214,0-0.422,0.041-0.613,0.111c-0.056,0.02-0.092-0.017-0.07-0.072
			c0.08-0.202,0.124-0.419,0.124-0.649c0-0.195-0.033-0.38-0.092-0.556c-0.018-0.053,0.017-0.088,0.07-0.069
			c0.185,0.064,0.378,0.11,0.58,0.11c0.207,0,0.397-0.024,0.578-0.087c0.053-0.018,0.087,0.015,0.07,0.069
			C50.564,90.461,50.536,90.634,50.536,90.823z M51.261,13.897C31.321,13.2,14.593,28.799,13.897,48.739
			C13.2,68.678,28.799,85.407,48.739,86.103c19.94,0.696,36.668-14.903,37.364-34.842C86.8,31.321,71.201,14.593,51.261,13.897z"/>
		<path fill-rule="evenodd" clip-rule="evenodd" fill="#4D71B3" d="M36.74,76.172c-0.581,0.626-1.383,0.63-2.157,0.409
			c-0.491-0.14-1.697-1.144-2.166-1.544l0.464,2.35c-0.134,0.438-1.588,0.508-1.732,0.516c-1.671,0.089-2.009-0.354-2.009-0.595
			c0-0.016-0.008-0.066-0.025-0.153l-0.062-0.33c-0.177-0.986-0.335-2.435,0.184-3.311c0.743-1.254,1.744-1.031,2.564-0.606
			c0.73,0.379,1.471,1.092,2.148,1.905c0.473,0.568,1.725,0.973,2.467,1.172l0.245,0.063C36.802,76.083,36.764,76.152,36.74,76.172z
			 M31.408,74.454c-0.032-0.084-0.367-0.911-0.912-0.639c-0.557,0.279-0.448,2.311-0.331,2.835c0.069,0.309,1.23,0.285,1.506,0.275
			L31.408,74.454z"/>
		<path fill-rule="evenodd" clip-rule="evenodd" fill="#4D71B3" d="M34.932,58.554l-1.065,3.573
			c-0.019,0.05-1.555,4.259-0.126,4.688c0.643,0.193,1.551-2.996,1.567-3.053l0.849-3.546L34.932,58.554z M39.714,59.689
			c1.312,1.945,2.678,4.29,2.86,5.851c0.361,3.1-0.226,6.768-0.226,6.768c-0.054,0.046-2.465,0.046-3.408,0.181
			c-0.467,0.067-1.572,0.395-2.567,0.709c-0.992,0.313-1.866,0.609-1.866,0.609c-0.064-0.023-0.598-0.895-1.16-1.955
			c-0.56-1.056-1.154-2.31-1.268-3.072c-0.227-1.512-0.299-6.414,2.647-12.502c0.022-0.044,0.064-0.049,0.094-0.008l1.727,2.345
			l0.486-2.414c0.011-0.057,0.06-0.069,0.096-0.024C37.13,56.177,38.399,57.74,39.714,59.689z M37.095,71.59l-0.072,0.04
			l-0.076,0.024c-0.737,0.225-1.481,0.429-2.223,0.635c-0.017,0.005-0.05-0.008-0.06-0.022c-0.804-1.174-1.233-2.389-1.425-3.791
			c-0.005-0.034,0.02-0.062,0.054-0.062c0.171-0.002,0.681-0.045,1.349-0.421c0.685-0.386,1.384-2.268,1.621-3.031l1.207-4.287
			c0.02-0.069,0.097-0.064,0.107,0.007l1.59,10.529c0.004,0.029-0.017,0.058-0.046,0.063l-1.141,0.183l-0.723,0.113L37.095,71.59z
			 M40.655,71.219c-0.681-7.922-1.309-10.051-1.535-10.586c-0.029-0.068,0.043-0.113,0.092-0.058c0.08,0.091,0.18,0.235,0.293,0.417
			c0.227,0.365,0.507,0.885,0.79,1.449c0.566,1.127,1.144,2.429,1.324,3.015c0.337,1.097,0.042,5.316,0.004,5.842
			c-0.002,0.03-0.03,0.053-0.06,0.051l-0.859-0.08L40.655,71.219z"/>
		<path fill-rule="evenodd" clip-rule="evenodd" fill="#4D71B3" d="M63.933,76.172c-0.024-0.02-0.061-0.088,0.014-0.108l0.31-0.08
			c0.742-0.199,1.994-0.605,2.467-1.172c0.677-0.812,1.418-1.526,2.148-1.905c0.82-0.425,1.821-0.648,2.564,0.606
			c0.519,0.876,0.361,2.325,0.184,3.311l-0.062,0.33c-0.016,0.088-0.025,0.138-0.025,0.153c0,0.936-3.742,0.646-3.742,0.09
			l0.465-2.361c-0.469,0.4-1.675,1.403-2.166,1.544c-0.774,0.221-1.576,0.217-2.146-0.384L63.933,76.172z M69.266,74.454
			l-0.263,2.471c0.213,0.009,1.437,0.036,1.506-0.275c0.117-0.525,0.226-2.557-0.331-2.835
			C69.731,73.592,69.398,74.109,69.266,74.454z"/>
		<path fill-rule="evenodd" clip-rule="evenodd" fill="#4D71B3" d="M48.42,21.544c0.284-0.642,0.552-1.152,0.595-1.233
			c0.068-0.546,0.909-0.623,1.274-0.623c0.61,0,1.113,0.297,1.386,0.826c0.048,0.094,0.068,0.156,0.068,0.156
			s0.156,0.506,0.319,1.019c0.048,0.152,0.245,0.821,0.361,1.062l0.038,0.101l0.084,0.249c0.193,0.577,0.62,1.817,1.066,2.134
			c2.311,1.64,2.628,6.518,2.628,6.722c0,0.214-0.846,7.441-1.478,10.192c-0.155,0.675-0.448,2.33,0.262,2.948
			c0.042,0.037,0.078,0.06,0.102,0.074c0.103,0.043,0.094,0.118,0.022,0.124l-2.255,0.209c-0.048,0.004-0.073-0.029-0.056-0.074
			c0,0,0.143-0.382,0.298-0.945c0.156-0.563,0.324-1.308,0.376-2.033c0.067-0.941,0.375-2.484,0.497-4.192
			c0.121-1.705,0.056-3.567-0.616-5.156c0.413-1.106,0.521-1.7,0.544-1.856c-0.164-0.06-0.791-0.288-1.471-0.525
			c-0.796-0.278-1.657-0.566-1.945-0.617c-0.424-0.075-1.634,1.369-2.001,1.761c-0.215,0.23-0.404,0.417-0.53,0.487
			c-0.224,0.125,0,0.668,0.062,0.845c0.094,0.273,0.318,0.824,0.05,1.068c-0.708,0.645-0.524,1.426-0.288,2.215
			c0.097,0.324,0.219,0.68,0.346,1.074c0.509,1.581,1.106,3.783,0.569,7.072c0.109,0.197,1.899,0.398,1.959,0.182
			c0.646-2.339,0.685-3.726,0.759-4.593c0.075-0.879,0.191-1.255,1.01-1.526c0.028-0.009,0.061,0.007,0.07,0.035
			c0.043,0.131,0.004,0.737-0.095,1.805c-0.098,1.07-0.259,2.622-0.472,4.672c0.73,0.221,0.533,0.52,0.079,0.786
			c-0.449,0.263-1.198,0.554-1.697,0.865c-0.029,0.018-0.064,0.008-0.079-0.023c-0.136-0.287-0.646-0.531-1.283-0.756
			c-0.63-0.223-1.352-0.42-1.87-0.625c-0.562-0.222-0.944-1.622-0.522-3.185c0.294-1.092-0.559-6.702-0.775-8.17
			c-0.07-0.475-0.171-0.778-0.279-1.015c-0.11-0.242-0.227-0.419-0.326-0.634c-0.203-0.443-0.325-1.04-0.169-2.62
			c0.158-1.589,0.789-2.8,1.398-3.77c0.303-0.483,0.601-0.907,0.834-1.289c0.232-0.382,0.393-0.714,0.43-1.017
			C47.778,23.107,48.11,22.244,48.42,21.544z M49.26,21.414c-0.022,0.138-0.055,0.367-0.083,0.622
			c-0.009,0.079,0.395,0.012,0.61,0.124c0.195,0.102,0.056,0.759,0.037,0.937c-0.021,0.186,0.3,0.095,0.284,0.178
			c-0.005,0.023-0.036,0.879,0.071,1.02c0.201,0.106,0.942-0.33,1.109-0.626c0.454-0.804,0.009-2.013-0.191-2.324
			c-0.139-0.216-1.251-0.166-1.573-0.157l-0.261,0.002L49.26,21.414z M53.892,28.445c-0.096-0.034-0.375-0.049-0.468-0.056
			c-0.631-0.043-2.234-0.082-2.746-0.361c-0.1-0.055-0.179-0.13-0.185-0.231c-0.009-0.65-0.222-1.372-0.839-2.063
			c-0.016-0.018-0.058-0.032-0.152,0.052c-0.361,0.32-0.558,1.079-0.381,1.52c0.296,0.74,0.043,1.264-0.668,1.444
			c-0.102,0.026-0.181,0.035-0.205,0.038l-1.375,0.504c0.025,0.285,0.181,1.937,0.436,2.064c0.13,0.065,2.858-1.97,2.908-2.17
			l0.106-0.043c0.18,0.021,0.37,0.09,0.542,0.143c0.826,0.253,1.64,0.544,2.467,0.793c0.168,0.051,0.353,0.117,0.53,0.134
			c0.441-0.294,0.217-1.056,0.098-1.469l-0.054-0.194C53.897,28.513,53.893,28.476,53.892,28.445z M50.37,22.107
			c0.491-0.07,0.593,0.105,0.699,0.195c0.165,0.14-0.099,0.197-0.335,0.251c-0.233,0.053-0.418,0.025-0.418,0.025
			S50.259,22.123,50.37,22.107z"/>
		<path fill-rule="evenodd" clip-rule="evenodd" fill="#4D71B3" d="M61.259,60.993c0.113-0.183,0.213-0.326,0.293-0.417
			c0.049-0.055,0.121-0.01,0.092,0.058c-0.226,0.535-0.854,2.664-1.535,10.586l-0.909,0.13c-0.03,0.003-0.058-0.021-0.06-0.051
			c-0.018-0.249-0.092-1.296-0.131-2.454c-0.045-1.328-0.045-2.803,0.135-3.388c0.18-0.585,0.758-1.887,1.324-3.015
			C60.752,61.878,61.033,61.358,61.259,60.993z M63.818,71.654l-0.076-0.024c-0.031-0.022-0.045-0.032-0.065-0.039l-0.166-0.023
			l-0.724-0.113l-1.141-0.183c-0.029-0.005-0.05-0.034-0.046-0.063l1.59-10.529c0.011-0.071,0.088-0.076,0.107-0.007l1.207,4.287
			c0.245,0.79,0.942,2.649,1.621,3.031c0.389,0.219,0.899,0.415,1.349,0.421c0.034,0,0.058,0.029,0.054,0.062
			c-0.192,1.403-0.621,2.617-1.425,3.791c-0.01,0.014-0.044,0.026-0.06,0.022C65.298,72.083,64.555,71.879,63.818,71.654z
			 M65.832,58.554l-1.225,1.662l0.849,3.546c0,0,0.229,0.823,0.548,1.62c0.333,0.834,0.723,1.522,1.019,1.433
			c1.287-0.386,0.165-3.899-0.126-4.688L65.832,58.554z M61.05,59.689c1.315-1.949,2.584-3.512,2.584-3.512
			c0.036-0.045,0.085-0.033,0.096,0.024l0.486,2.414l1.727-2.345c0.03-0.04,0.072-0.036,0.094,0.008
			c2.946,6.088,2.874,10.991,2.647,12.502c-0.187,1.244-1.657,3.848-2.364,5.003c-0.064,0.023-0.938-0.273-1.93-0.586
			c-0.994-0.314-2.1-0.642-2.567-0.709c-0.943-0.135-3.354-0.134-3.354-0.134c-0.054-0.046-0.201-0.964-0.303-2.268
			c-0.101-1.305-0.158-2.997,0.023-4.547C58.372,63.979,59.738,61.634,61.05,59.689z"/>
	</g>
</g>
</svg>
